<svg width="138" height="119" viewBox="0 0 138 119" fill="none" xmlns="http://www.w3.org/2000/svg">
<path fill-rule="evenodd" clip-rule="evenodd" d="M81.5309 75.7841C55.556 94.6396 27.149 109.493 7.84741 117.881C6.40503 118.508 4.74173 117.825 4.12981 116.377L1.108 109.222C0.496067 107.774 1.16717 106.108 2.60924 105.48C21.1527 97.41 48.6156 83.0432 73.6229 64.8901C95.8423 48.7607 115.244 30.2655 125.332 11.19C130.375 6.78915 128.822 7.95409 136.459 2.25879C134.517 12.7433 134.258 16.3676 132.968 24.7811C120.757 43.9064 101.519 61.2747 81.5309 75.7841Z" fill="black"/>
<path d="M136.2 2C135.233 2.76194 134.231 3.49496 133.208 4.20046C132.567 4.64262 131.931 5.17205 131.238 5.5308C130.447 5.93996 129.745 6.48922 128.951 6.88631C127.283 7.72029 125.783 8.886 124.083 9.65127C123.136 10.0774 122.241 10.6332 121.314 11.0967C120.571 11.4682 119.809 11.7979 119.081 12.1897C118.506 12.4995 117.791 12.7232 117.172 12.9376C116.742 13.0865 116.366 13.3733 115.943 13.5201C115.432 13.6966 114.972 13.9206 114.468 14.1241C114.086 14.2784 113.669 14.3908 113.26 14.4297C112.835 14.4702 112.427 14.7071 112.009 14.8001C111.478 14.9181 110.855 15.0733 110.312 15.0733C109.582 15.0733 108.881 15.5264 108.144 15.5264C107.508 15.5264 106.955 15.7852 106.299 15.7852" stroke="black" stroke-width="2.07102" stroke-linecap="round"/>
<path d="M105.652 16.1089C105.652 16.9538 105.794 17.8653 106.202 18.6006C106.372 18.9057 106.511 19.2305 106.673 19.539C106.864 19.902 107.044 20.4167 107.302 20.7327C108.182 21.8072 108.653 23.2012 109.467 24.3211C110.16 25.2734 110.772 26.2915 111.477 27.2406C111.932 27.8538 112.376 28.4872 112.807 29.1139C113.055 29.4738 113.464 29.7416 113.738 30.0847C114.008 30.4223 114.292 30.768 114.598 31.0734C115.015 31.4909 115.463 31.8737 115.881 32.2923C116.385 32.7962 116.789 33.3945 117.287 33.8923C117.7 34.3047 118.109 34.722 118.556 35.1004C119.015 35.4888 119.333 36.0109 119.696 36.4811C120.225 37.1659 120.8 37.8156 121.314 38.5018" stroke="black" stroke-width="2.07102" stroke-linecap="round"/>
<path d="M121.314 38.5017C122.5 39.6526 123.696 40.7997 125.003 41.8168C125.67 42.335 126.246 42.9535 126.938 43.4527C127.19 43.6354 127.386 43.8735 127.657 44.0388C127.983 44.238 128.306 44.5042 128.577 44.7651C128.955 45.1291 129.631 45.6764 130.116 45.815C130.392 45.8938 130.76 46.058 131.022 46.1889C131.329 46.3422 131.675 46.3939 131.997 46.4946C132.256 46.5756 132.555 46.7211 132.834 46.7211" stroke="black" stroke-width="2.07102" stroke-linecap="round"/>
<path d="M136.264 2.19409C136.264 2.6406 136.314 3.11741 136.214 3.5532C136.108 4.01533 136.215 4.51643 136.121 4.97703C135.916 5.97599 136.105 7.03108 135.926 8.03322C135.682 9.40799 135.553 11.3539 135.393 12.7434C135.194 14.4648 134.965 15.6324 134.762 17.3528C134.684 18.0082 134.55 18.7191 134.388 19.3591C134.183 20.164 134.216 21.0371 134.114 21.8544C134.03 22.531 133.946 23.2067 133.935 23.8895C133.924 24.5539 133.757 25.2156 133.74 25.8814C133.724 26.5441 133.676 27.2056 133.676 27.8733C133.676 28.5616 133.633 29.3414 133.532 30.0234C133.399 30.9205 133.512 31.8437 133.402 32.7488C133.346 33.2167 133.287 33.6973 133.287 34.1655" stroke="black" stroke-width="2.07102" stroke-linecap="round"/>
<path d="M133.287 34.1655C133.287 35.5294 133.287 36.8933 133.287 38.2572C133.287 39.7185 133.158 41.1668 133.158 42.6294C133.158 43.9594 132.964 45.2671 132.964 46.5916" stroke="black" stroke-width="2.07102" stroke-linecap="round"/>
<path d="M116.365 13.2612L130.733 6.27148L134.099 18.0504L133.193 46.7858L130.474 46.0092L123.614 40.7022L114.683 31.6415L107.046 20.5097L105.622 16.1088L116.365 13.2612Z" fill="black"/>
</svg>
