<svg width="56" height="55" viewBox="0 0 56 55" fill="none" xmlns="http://www.w3.org/2000/svg">
<path d="M17.7646 3.91674C15.2647 4.66674 13.4233 6.34135 11.2785 8.48611C6.92752 12.8371 7.46858 12.1024 5.26465 17C4.54543 18.5983 3.01463 23.9053 3.01463 25.7361C3.01463 27.7222 3.01463 29.7083 3.01463 31.6944C3.01463 35.2137 2.74004 38.6126 4.57018 41.75C5.48917 43.3254 6.96765 44.4787 8.01463 45.9444C8.69376 46.8952 9.94482 47.8575 11.0285 48.2639C13.9682 49.3663 16.7667 51.2481 19.9035 51.75C27.3418 52.9401 34.912 52.7742 41.7646 49.25C46.9818 46.5669 51.2183 41.2455 52.3896 35.3889C53.27 30.9872 53.3317 26.6887 53.0146 22.25C52.658 17.2573 49.2378 12.5321 46.3202 8.75C42.2653 3.4937 35.8118 2.25 29.5424 2.25C27.9591 2.25 26.3757 2.25 24.7924 2.25C23.408 2.25 22.1091 2.93277 20.7646 3C19.5826 3.0591 18.0771 3.75 17.0336 4.26719" stroke="black" stroke-width="4.39" stroke-linecap="round"/>
<path d="M15.0146 32.25C17.9036 35.0718 20.2945 38.2799 23.1396 41.125C23.3855 41.3708 24.2646 42.7545 24.2646 41.8194C24.2646 39.2678 25.2587 36.9967 26.1396 34.625C28.6191 27.9496 30.7598 21.148 34.9591 15.3056C36.2013 13.5773 36.5637 13.323 38.2646 12" stroke="#37B24D" stroke-width="5.85" stroke-linecap="round"/>
</svg>
