<svg width="25" height="17" viewBox="0 0 25 17" fill="none" xmlns="http://www.w3.org/2000/svg">
<path d="M23.2367 15.9967C19.8846 16.9843 16.0366 16.3615 12.5713 16.3196C12.2645 16.3154 11.9598 16.3133 11.655 16.3133H4.64004C3.80361 16.3133 2.93146 16.3867 2.09922 16.3133C0.733184 16.1938 0.76471 15.8121 0.76471 14.3149V13.8745C0.76471 13.3251 0.76471 12.7736 1.09886 12.3249C1.4225 11.723 4.95525 12.155 5.81057 12.155H12.8573H18.8447C20.3705 12.155 22.4573 11.7881 23.9074 12.3899C25.534 13.0672 24.5817 15.6003 23.2367 15.9967ZM23.2367 3.99172C19.8846 4.97937 16.0366 4.35659 12.5713 4.31465C12.2645 4.31046 11.9598 4.30836 11.655 4.30836H4.64004C3.80361 4.30836 2.93146 4.38175 2.09922 4.30836C0.733184 4.18883 0.76471 3.80719 0.76471 2.30993V1.86957C0.76471 1.32019 0.76471 0.768657 1.09886 0.319927C1.4225 -0.281904 4.95525 0.150071 5.81057 0.150071H12.8573H18.8447C20.3705 0.150071 22.4573 -0.216895 23.9074 0.384931C25.534 1.06433 24.5817 3.59538 23.2367 3.99172Z" fill="black"/>
</svg>
