<svg width="546" height="354" viewBox="0 0 546 354" fill="none" xmlns="http://www.w3.org/2000/svg">
<path d="M206.175 132.041L205.947 128.776L210.359 128.467L209.38 114.466L204.968 114.774L204.74 111.509L217.976 110.584L218.204 113.849L213.792 114.157L214.771 128.159L219.184 127.85L219.412 131.115L206.175 132.041ZM223.518 130.828L222.457 115.65L226.81 115.346L227.004 118.111L227.18 118.098C227.327 117.655 227.514 117.237 227.743 116.847C227.972 116.457 228.253 116.112 228.587 115.813C228.939 115.492 229.345 115.237 229.805 115.048C230.282 114.837 230.825 114.71 231.433 114.668C232.159 114.617 232.834 114.698 233.46 114.91C234.085 115.103 234.63 115.429 235.095 115.89C235.561 116.35 235.936 116.924 236.221 117.614C236.525 118.302 236.709 119.107 236.774 120.029L237.461 129.853L233.108 130.157L232.462 120.921C232.325 118.96 231.403 118.039 229.697 118.159C229.364 118.182 229.034 118.254 228.707 118.376C228.399 118.476 228.124 118.633 227.883 118.847C227.64 119.042 227.45 119.281 227.313 119.567C227.194 119.851 227.148 120.179 227.174 120.552L227.872 130.524L223.518 130.828ZM249.245 129.029C247.676 129.139 246.48 128.809 245.658 128.038C244.836 127.268 244.38 126.246 244.291 124.971L243.772 117.559L239.654 117.847L239.418 114.464L242.095 114.277C242.742 114.232 243.194 114.072 243.45 113.798C243.707 113.524 243.811 113.043 243.763 112.357L243.514 108.798L247.515 108.518L247.889 113.872L253.802 113.458L254.038 116.841L248.126 117.254L248.714 125.667L254.626 125.253L254.863 128.636L249.245 129.029ZM266.142 128.202C263.593 128.38 261.612 127.81 260.199 126.49C258.787 125.169 257.995 123.294 257.825 120.862C257.739 119.627 257.828 118.507 258.093 117.503C258.376 116.478 258.807 115.601 259.387 114.871C259.984 114.12 260.722 113.536 261.599 113.12C262.495 112.683 263.511 112.425 264.649 112.345C265.786 112.265 266.819 112.38 267.747 112.69C268.674 112.98 269.474 113.436 270.148 114.059C270.822 114.682 271.36 115.462 271.76 116.4C272.179 117.316 272.43 118.363 272.512 119.539L272.602 120.834L262.219 121.56L262.238 121.825C262.306 122.805 262.666 123.578 263.316 124.143C263.965 124.689 264.878 124.921 266.054 124.839C266.957 124.776 267.719 124.555 268.343 124.176C268.966 123.778 269.492 123.278 269.923 122.676L272.455 125.071C271.918 125.838 271.138 126.523 270.116 127.126C269.094 127.73 267.769 128.088 266.142 128.202ZM264.896 115.461C263.955 115.527 263.221 115.874 262.693 116.502C262.184 117.109 261.963 117.903 262.032 118.883L262.048 119.118L268.167 118.691L268.15 118.455C268.08 117.455 267.751 116.69 267.162 116.16C266.593 115.628 265.837 115.395 264.896 115.461ZM276.458 123.727L279.959 123.482L279.37 115.07L275.87 115.314L275.634 111.932L283.487 111.382L283.788 115.677L283.994 115.663C284.092 115.104 284.242 114.561 284.441 114.035C284.659 113.488 284.941 113.005 285.286 112.587C285.649 112.148 286.097 111.791 286.63 111.517C287.163 111.244 287.801 111.081 288.547 111.029L289.988 110.928L290.268 114.928L287.032 115.154C285.954 115.23 285.162 115.61 284.659 116.296C284.153 116.962 283.933 117.756 283.997 118.677L284.312 123.178L289.313 122.828L289.549 126.211L276.695 127.11L276.458 123.727ZM294.067 125.895L293.006 110.717L297.359 110.412L297.553 113.177L297.729 113.165C297.876 112.721 298.063 112.304 298.292 111.914C298.521 111.523 298.802 111.179 299.136 110.879C299.488 110.559 299.894 110.304 300.354 110.114C300.832 109.904 301.374 109.777 301.982 109.734C302.708 109.684 303.384 109.765 304.009 109.977C304.634 110.17 305.179 110.496 305.644 110.956C306.11 111.416 306.485 111.991 306.77 112.681C307.074 113.369 307.259 114.174 307.323 115.095L308.01 124.92L303.657 125.224L303.011 115.988C302.874 114.027 301.952 113.106 300.246 113.225C299.913 113.249 299.583 113.321 299.256 113.442C298.948 113.543 298.673 113.7 298.432 113.914C298.189 114.108 297.999 114.348 297.862 114.634C297.744 114.918 297.698 115.246 297.724 115.619L298.421 125.59L294.067 125.895ZM319.054 124.502C316.504 124.68 314.523 124.11 313.111 122.79C311.698 121.47 310.907 119.594 310.737 117.162C310.651 115.927 310.74 114.807 311.005 113.803C311.288 112.779 311.719 111.901 312.298 111.171C312.896 110.42 313.634 109.836 314.511 109.42C315.407 108.983 316.423 108.725 317.561 108.645C318.698 108.566 319.731 108.681 320.659 108.99C321.585 109.28 322.386 109.736 323.06 110.359C323.734 110.982 324.272 111.762 324.672 112.7C325.091 113.616 325.341 114.663 325.424 115.84L325.514 117.134L315.131 117.86L315.149 118.125C315.218 119.105 315.577 119.878 316.228 120.443C316.877 120.989 317.79 121.221 318.966 121.139C319.868 121.076 320.631 120.855 321.255 120.476C321.877 120.078 322.404 119.578 322.835 118.976L325.367 121.371C324.83 122.138 324.05 122.823 323.028 123.426C322.006 124.03 320.681 124.388 319.054 124.502ZM317.808 111.761C316.867 111.827 316.132 112.174 315.605 112.802C315.095 113.409 314.875 114.203 314.944 115.183L314.96 115.418L321.078 114.991L321.062 114.755C320.992 113.755 320.663 112.99 320.074 112.46C319.505 111.928 318.749 111.695 317.808 111.761ZM337.431 122.862C335.862 122.972 334.667 122.642 333.844 121.872C333.022 121.102 332.566 120.079 332.477 118.805L331.959 111.392L327.841 111.68L327.604 108.297L330.281 108.11C330.928 108.065 331.38 107.905 331.637 107.631C331.893 107.357 331.998 106.877 331.95 106.191L331.701 102.631L335.701 102.352L336.076 107.705L341.988 107.292L342.224 110.674L336.312 111.088L336.9 119.5L342.813 119.087L343.049 122.47L337.431 122.862Z" fill="black"/>
<path d="M171.024 128.434C169.749 81.6916 219.36 71.0683 254.948 65.7567C290.536 60.4451 360.013 58.3204 370.211 102.938C382.959 158.711 310.721 168.803 290.005 173.583C269.29 178.364 172.618 186.862 171.024 128.434Z" stroke="black" stroke-width="4.09534"/>
<path d="M173 141L23 194" stroke="black" stroke-width="5"/>
<circle cx="14.5" cy="196.5" r="11.5" fill="white" stroke="black" stroke-width="4.3125"/>
<path d="M366 90.6937L521.146 55.4976" stroke="black" stroke-width="5"/>
<circle r="11.5" transform="matrix(-0.845805 0.533492 0.533492 0.845805 529.669 53.0772)" fill="white" stroke="black" stroke-width="4.3125"/>
<path d="M212.443 171.042L197.93 329.467" stroke="black" stroke-width="5"/>
<circle cx="196.65" cy="338.234" r="11.5" transform="rotate(-65.3055 196.65 338.234)" fill="white" stroke="black" stroke-width="4.3125"/>
<path d="M352.053 150.33L410 242L443.037 280.832" stroke="black" stroke-width="5"/>
<circle cx="447.707" cy="288.361" r="11.5" transform="rotate(-105.423 447.707 288.361)" fill="white" stroke="black" stroke-width="4.3125"/>
<path fill-rule="evenodd" clip-rule="evenodd" d="M223.35 283.222C223.65 283.684 223.642 283.968 223.63 284.394C223.614 284.963 224.071 285.442 224.531 285.778C225.3 286.291 226.095 285.951 226.119 285.098C225.999 283.801 225.879 282.504 225.759 281.207C225.636 280.052 225.354 278.879 225.382 277.885C225.402 277.174 225.106 276.571 224.332 276.2C223.559 275.829 223.078 276.204 222.593 276.72C221.619 277.896 220.645 279.072 219.363 280.07C218.401 280.82 218.685 281.85 219.932 282.13C220.709 282.359 220.701 282.643 220.685 283.212C220.476 285.044 220.265 287.017 219.899 288.831C219.706 290.093 219.826 291.39 219.786 292.813C219.774 293.239 220.078 293.558 220.384 293.878C220.845 294.214 221.309 294.408 221.782 294.317C222.255 294.227 222.424 293.818 222.279 293.374C222.179 291.366 222.392 289.392 222.605 287.419C223.114 286.049 223.306 284.786 223.35 283.222L223.35 283.222Z" fill="black"/>
<path fill-rule="evenodd" clip-rule="evenodd" d="M214.179 287.435C214.266 284.316 214.35 281.339 215.205 278.59C215.372 278.182 215.538 277.774 215.241 277.315C214.791 276.695 214.179 276.343 213.555 276.415C212.934 276.346 212.918 276.914 212.752 277.322C212.206 280.105 211.975 282.782 211.741 285.599C211.729 286.025 211.873 286.467 211.55 286.858C211.088 286.665 210.631 286.329 210.17 286.137C209.395 286.05 208.917 286.424 209.367 287.043C210.405 288.865 210.815 290.901 212.012 292.599C212.313 292.917 212.613 293.376 212.914 293.695C213.678 294.207 214.307 293.993 214.636 293.317C215.153 291.526 215.822 289.894 216.955 288.313C217.277 287.922 217.138 287.337 216.681 287.003C216.224 286.668 215.607 286.457 214.979 286.671C214.66 286.919 214.5 287.044 214.179 287.435L214.179 287.435Z" fill="black"/>
<path fill-rule="evenodd" clip-rule="evenodd" d="M417.215 209.065C417.724 209.182 417.899 209.399 418.161 209.726C418.511 210.162 419.145 210.175 419.69 210.078C420.569 209.881 420.925 209.029 420.4 208.376C419.488 207.501 418.578 206.624 417.667 205.749C416.844 204.983 415.896 204.321 415.284 203.559C414.846 203.015 414.249 202.788 413.456 203.095C412.664 203.402 412.557 204.043 412.536 204.792C412.582 206.401 412.629 208.011 412.341 209.72C412.125 211.002 412.985 211.556 414.061 210.825C414.765 210.41 414.94 210.628 415.29 211.064C416.305 212.585 417.407 214.214 418.297 215.84C418.961 216.925 419.872 217.801 420.748 218.89C421.01 219.217 421.432 219.225 421.855 219.233C422.4 219.136 422.858 218.931 423.141 218.507C423.424 218.084 423.285 217.652 422.899 217.43C421.55 216.011 420.448 214.38 419.347 212.751C418.842 211.347 418.177 210.262 417.215 209.065L417.215 209.065Z" fill="black"/>
<path fill-rule="evenodd" clip-rule="evenodd" d="M413.049 218.301C411.13 215.915 409.299 213.638 408.169 210.948C408.031 210.518 407.892 210.089 407.384 209.972C406.666 209.851 406 210.051 405.594 210.577C405.102 210.995 405.451 211.429 405.59 211.858C406.965 214.339 408.499 216.504 410.121 218.776C410.383 219.101 410.768 219.322 410.782 219.857C410.327 220.062 409.782 220.157 409.326 220.363C408.711 220.884 408.604 221.522 409.322 221.643C411.231 222.214 412.821 223.419 414.765 223.777C415.185 223.786 415.694 223.902 416.114 223.911C416.991 223.715 417.31 223.08 417.119 222.329C416.354 220.606 415.8 218.887 415.614 216.856C415.598 216.323 415.127 215.992 414.583 216.089C414.04 216.185 413.46 216.494 413.142 217.128C413.069 217.553 413.033 217.767 413.049 218.301L413.049 218.301Z" fill="black"/>
<path fill-rule="evenodd" clip-rule="evenodd" d="M436.671 52.3113C437.055 51.947 437.346 51.8304 437.782 51.6552C438.364 51.4215 438.722 50.9621 438.935 50.5613C439.241 49.9127 438.674 49.6136 437.801 49.9639C436.518 50.5845 435.235 51.2041 433.952 51.8246C432.814 52.3857 431.702 53.0432 430.685 53.4515C429.958 53.7433 429.427 54.1662 429.268 54.7571C429.107 55.3471 429.622 55.4561 430.281 55.5072C431.747 55.5501 433.213 55.5931 434.585 55.8837C435.614 56.1018 436.58 55.5038 436.516 54.6872C436.532 54.1553 436.822 54.0387 437.405 53.805C439.322 53.1408 441.384 52.4177 443.328 51.8485C444.663 51.4181 445.946 50.7976 447.402 50.2135C447.838 50.0383 448.076 49.7326 448.316 49.4253C448.528 49.0245 448.596 48.6817 448.372 48.4561C448.147 48.2305 447.685 48.3106 447.275 48.5808C445.265 49.4931 443.201 50.2158 441.139 50.938C439.606 51.2379 438.27 51.6692 436.671 52.3113L436.671 52.3113Z" fill="black"/>
<path fill-rule="evenodd" clip-rule="evenodd" d="M444.08 59.0984C440.862 60.4104 437.792 61.6625 434.737 62.3699C434.272 62.4514 433.808 62.5338 433.421 62.9065C432.915 63.4364 432.727 63.9431 432.977 64.2724C433.082 64.661 433.667 64.4223 434.132 64.3398C437.134 63.4387 439.939 62.403 442.889 61.307C443.327 61.1282 443.74 60.8519 444.231 60.8678C444.164 61.2182 443.949 61.629 443.882 61.9795C444.013 62.4645 444.53 62.5768 445.037 62.0469C446.608 60.6516 448.576 59.5259 449.977 58.0934C450.216 57.7805 450.602 57.4069 450.844 57.0934C451.152 56.4295 450.755 56.16 449.971 56.2647C447.991 56.7489 446.132 57.0759 444.194 57.1126C443.703 57.0976 443.144 57.4328 442.93 57.843C442.717 58.2533 442.675 58.7017 443.071 58.9702C443.416 59.0459 443.589 59.0834 444.08 59.0984L444.08 59.0984Z" fill="black"/>
<path fill-rule="evenodd" clip-rule="evenodd" d="M73.5666 199.946C73.211 200.338 72.927 200.474 72.5003 200.679C71.931 200.952 71.6111 201.437 71.4339 201.854C71.1851 202.525 71.79 202.787 72.6433 202.377C73.8876 201.669 75.1323 200.961 76.3766 200.253C77.4785 199.614 78.5458 198.88 79.5405 198.402C80.2511 198.061 80.7494 197.601 80.8552 196.998C80.9613 196.395 80.4278 196.32 79.7531 196.313C78.2595 196.368 76.7659 196.422 75.3439 196.222C74.277 196.072 73.352 196.737 73.4957 197.552C73.5309 198.087 73.2469 198.223 72.6776 198.497C70.7925 199.291 68.7664 200.154 66.8456 200.855C65.5299 201.376 64.2856 202.085 62.8629 202.768C62.4363 202.973 62.2233 203.296 62.0094 203.62C61.8322 204.036 61.7963 204.385 62.0458 204.596C62.2952 204.808 62.7576 204.696 63.1486 204.398C65.1036 203.348 67.1313 202.485 69.1577 201.623C70.6872 201.219 72.0026 200.697 73.5666 199.946L73.5666 199.946Z" fill="black"/>
<path fill-rule="evenodd" clip-rule="evenodd" d="M65.5987 193.718C68.7452 192.187 71.7483 190.726 74.7866 189.811C75.2514 189.698 75.7159 189.584 76.0736 189.185C76.5389 188.62 76.6817 188.101 76.3965 187.788C76.2534 187.407 75.6809 187.686 75.2164 187.8C72.2496 188.905 69.4962 190.132 66.601 191.428C66.172 191.637 65.7788 191.941 65.2781 191.959C65.313 191.604 65.4927 191.178 65.5276 190.823C65.349 190.347 64.8128 190.27 64.3475 190.834C62.8818 192.337 60.9874 193.596 59.6992 195.124C59.485 195.454 59.1277 195.853 58.9121 196.183C58.6617 196.868 59.0903 197.111 59.8776 196.953C61.8444 196.334 63.7035 195.88 65.6695 195.712C66.1699 195.693 66.7068 195.32 66.8852 194.895C67.0635 194.471 67.0639 194.019 66.6356 193.778C66.2783 193.725 66.099 193.7 65.5987 193.718L65.5987 193.718Z" fill="black"/>
</svg>
