<svg width="88" height="45" viewBox="0 0 88 45" fill="none" xmlns="http://www.w3.org/2000/svg">
<rect x="0.333252" width="87.2302" height="45.0001" fill="#EDF2FF"/>
<path d="M56.7041 18.1585C57.705 17.9643 57.7436 16.9323 57.5444 16.4406C60.084 16.0066 59.8973 17.8784 60.084 18.9241C60.2334 19.7607 60.0218 28.0244 59.8973 32.2384C60.9617 32.4002 63.4901 32.6604 64.3416 32.4065C63.4453 31.8089 63.3146 30.8379 63.2772 30.4457C63.2399 30.0536 63.3893 23.8726 63.4079 21.8372C63.4266 19.8018 64.435 17.6543 68.6365 17.5983C72.8381 17.5423 71.8538 19.4052 71.6391 19.6199C71.4243 19.8347 71.1761 19.7645 71.0454 20.0632C70.784 20.6795 71.3629 22.7522 73.7718 21.4824C75.6989 20.4666 74.9357 18.171 74.3133 17.1502C72.726 14.0877 68.8419 14.2558 67.6468 14.4051C66.4517 14.5545 62.8291 15.7123 62.2875 16.4779C62.2875 15.7683 60.6217 12.729 57.8059 13.3594C54.9001 14.01 54.7496 16.0297 55.0048 16.8327C55.092 17.2311 55.7032 18.3527 56.7041 18.1585Z" fill="#3B5BDB" stroke="#3B5BDB" stroke-width="0.8"/>
<path d="M18.2331 15.1861L18.1517 15.0439L17.9979 15.1001L14.6179 16.3325L14.6179 16.3325L14.6155 16.3334C14.2106 16.4874 13.6465 16.8351 13.2556 17.3879C12.8585 17.9493 12.6459 18.7155 12.9493 19.6736C13.1014 20.1538 13.3439 20.5047 13.644 20.7494C13.9432 20.9934 14.2895 21.1237 14.638 21.1794C15.2376 21.2751 15.8576 21.1524 16.3061 20.99C17.1728 23.3917 19.2359 28.7398 21.1031 32.4013L21.1457 32.4847L21.2374 32.5034C22.66 32.794 24.1311 32.6252 24.6972 32.503L24.8301 32.4743L24.8487 32.3396C24.8529 32.3092 24.8739 32.2182 24.9161 32.0601C24.9569 31.9072 25.0144 31.7028 25.0869 31.4539C25.2319 30.9565 25.4362 30.2844 25.6852 29.4988C26.1834 27.9275 26.8598 25.9045 27.5975 23.9189C28.3358 21.9317 29.1333 19.9883 29.873 18.5731C30.2437 17.8641 30.5947 17.2977 30.9112 16.9254C31.0697 16.739 31.2122 16.61 31.3365 16.5347C31.4602 16.4598 31.5486 16.4479 31.6125 16.4621C32.1936 16.5918 32.6624 16.4363 33.0255 16.1286C33.3798 15.8285 33.6263 15.3907 33.7985 14.9586C33.9718 14.5238 34.0768 14.0771 34.1385 13.7414C34.1695 13.573 34.1898 13.4312 34.2024 13.3312C34.2087 13.2811 34.2131 13.2414 34.2159 13.214L34.219 13.1822L34.2198 13.1736L34.22 13.1712L34.2201 13.1705L34.2201 13.1702C34.2201 13.1702 34.2201 13.1701 34.0264 13.1539L34.2201 13.1701L34.2377 12.9596H34.0264C33.5587 12.9596 33.0963 12.9261 32.6422 12.8901C32.5956 12.8864 32.5492 12.8826 32.5028 12.8789C32.0989 12.8465 31.7004 12.8146 31.3202 12.8072C30.4741 12.7908 29.6729 12.8937 29.0297 13.4185C28.2483 14.0561 27.4219 15.1242 26.6462 16.3546C25.8682 17.5887 25.1322 19.0005 24.5347 20.3387C23.1675 23.4008 22.6894 25.7252 22.5255 27.0682C21.9769 25.3444 21.2316 23.0665 20.4954 20.9443C19.6177 18.4139 18.7447 16.0794 18.2331 15.1861Z" fill="#3B5BDB" stroke="#3B5BDB" stroke-width="0.388755"/>
<path fill-rule="evenodd" clip-rule="evenodd" d="M35.4419 18.0307V20.8979H37.942V19.9189H38.7812V18.8349H39.6553V18.0307H44.603V18.8349H45.7919V19.9189H47.0506V20.8979H48.4143L48.5717 23.6357H46.7836V22.814H45.7521V21.8349H38.3043V22.814H37.5001V23.6357H36.1714V30.6066H37.2203V31.3758H38.3043V32.3549H45.7521V31.3758H46.7836V30.6066H47.7801L47.7849 28.1445H48.5717V32.3549H51.6312V14.3823L48.5717 14.5222V17.302H47.4353V16.0607H46.0891V14.6621L38.7812 14.5222V15.5187H37.942V16.4803H36.9454V17.302H35.4419V18.0307ZM40.3026 24.4747V25.2126H39.546V26.0429H38.6968V28.369H39.546V29.1839H40.3026V29.9833H43.6159V29.1839H44.4652V28.369H45.4379V26.0429H44.4652V25.2126H43.6159V24.4747H40.3026Z" fill="#3B5BDB" stroke="#3B5BDB" stroke-width="0.43372"/>
</svg>
