<svg width="524" height="257" viewBox="0 0 524 257" fill="none" xmlns="http://www.w3.org/2000/svg">
<path d="M42.3047 249.159C43.8183 249.432 45.3622 249.889 46.8185 250.365C48.5371 250.928 50.1978 251.62 51.9828 251.958C53.4901 252.243 54.9641 252.654 56.4808 252.92C57.3325 253.069 58.1956 252.999 59.0511 253.078C59.8234 253.149 60.6018 253.244 61.377 253.275C62.8617 253.334 64.3209 253.821 65.7804 254.051C67.2881 254.289 68.7745 254.645 70.2943 254.8C71.884 254.963 73.4884 254.907 75.088 254.907" stroke="black" stroke-width="3" stroke-linecap="round"/>
<path d="M73.811 254.978C76.0003 254.978 78.1895 254.978 80.3787 254.978C81.3547 254.978 82.3543 255.037 83.3275 254.962C84.7378 254.852 86.1618 254.672 87.5732 254.619C91.6264 254.466 95.6715 253.847 99.7112 253.771C100.323 253.76 100.983 253.85 101.588 253.755C102.167 253.664 102.801 253.513 103.385 253.487C104.631 253.432 105.864 252.957 107.099 252.845C107.856 252.776 108.633 252.614 109.385 252.494C109.852 252.419 110.322 252.373 110.781 252.246C111.656 252.003 112.547 251.787 113.406 251.5" stroke="black" stroke-width="3" stroke-linecap="round"/>
<path d="M28.3723 197.936C28.3723 199.292 28.3723 200.648 28.3723 202.004C28.3723 204.919 27.9465 207.813 27.9465 210.724C27.9465 212.611 27.9465 218.272 27.9465 216.385" stroke="black" stroke-width="3" stroke-linecap="round"/>
<path d="M27.5208 216.385C28.6662 216.587 29.7769 216.833 30.9189 217.024C32.5655 217.298 34.2424 217.379 35.9097 217.379C38.8075 217.379 41.6967 217.995 44.5826 218.088C46.3158 218.144 48.0805 218.15 49.7941 218.364C52.1633 218.66 54.5524 219.005 56.9295 219.255C60.1682 219.596 63.3921 219.933 66.6588 219.933C68.9506 219.933 71.2423 219.933 73.534 219.933C74.4933 219.933 75.4525 219.933 76.4118 219.933C76.8612 219.933 77.3106 219.933 77.76 219.933C78.3693 219.933 78.0658 219.455 78.0439 219.082C78.0253 218.766 77.76 218.373 77.76 218.017C77.76 217.482 77.683 217.036 77.6102 216.527C77.4458 215.376 77.3343 214.27 77.3343 213.089C77.3343 211.539 77.1924 209.971 77.1924 208.438C77.1924 207.657 77.0786 206.894 77.0504 206.135C77.0342 205.697 77.0538 204.862 76.877 204.464C76.5525 203.734 76.6646 202.833 76.2699 202.122C75.9929 201.624 75.4893 200.593 75.4893 200.064" stroke="black" stroke-width="3" stroke-linecap="round"/>
<path d="M28.0884 198.503C34.7349 198.503 41.3815 198.503 48.028 198.503C49.4837 198.503 50.9435 198.077 52.4038 198.077C53.2632 198.077 54.1226 198.077 54.982 198.077C56.6246 198.077 58.2672 198.077 59.9098 198.077C62.7104 198.077 65.5042 198.645 68.3224 198.645C69.479 198.645 70.595 198.716 71.7206 198.921C72.9615 199.147 74.5068 199.076 75.6312 199.639" stroke="black" stroke-width="3" stroke-linecap="round"/>
<path d="M94.3329 197.399C95.7615 196.991 97.4972 196.516 98.9689 196.516C100.056 196.516 101.069 196.233 102.17 196.233C104.39 196.233 106.595 195.949 108.84 195.949C111.484 195.949 114.027 196.75 116.638 197.076C118.075 197.256 119.547 197.51 120.998 197.51C122.14 197.51 123.285 197.936 124.38 197.936C125.34 197.936 125.263 198.878 125.303 199.639C125.384 201.176 125.445 202.704 125.445 204.259C125.445 205.849 125.445 207.439 125.445 209.029C125.445 210.818 125.926 212.52 126.012 214.256C126.059 215.185 126.438 216.105 126.438 217.024C126.438 217.426 126.438 217.828 126.438 218.23C126.438 218.73 125.4 218.514 125.019 218.514C123.806 218.514 122.614 218.586 121.408 218.648C119.945 218.723 118.45 218.525 116.993 218.664C115.495 218.806 113.877 219.082 112.388 219.082C111.413 219.082 110.488 219.365 109.487 219.365C108.299 219.365 107.111 219.365 105.923 219.365C100.631 219.365 95.4094 219.649 90.0832 219.649C87.7021 219.649 85.3211 219.649 82.94 219.649C81.3007 219.649 79.512 219.365 77.9019 219.365" stroke="black" stroke-width="3" stroke-linecap="round"/>
<path d="M47.957 178.099C48.697 177.709 49.4108 177.783 50.2277 177.783C52.2618 177.783 54.3233 177.641 56.3302 177.641C58.2487 177.641 60.2363 177.357 62.1568 177.357C65.7941 177.357 69.4315 177.357 73.0688 177.357C74.8552 177.357 76.8091 177.592 78.5406 177.208C80.278 176.822 82.1294 176.79 83.9414 176.79C85.714 176.79 87.3457 176.364 89.1214 176.364C91.0347 176.364 92.948 176.364 94.8612 176.364C96.4058 176.364 97.9338 176.47 99.3948 175.938C100.648 175.483 101.893 175.509 103.022 174.945" stroke="black" stroke-width="3" stroke-linecap="round"/>
<path d="M103.164 174.945C103.712 174.932 104.317 174.661 104.796 174.661C105.308 174.661 105.44 174.306 105.568 175.142C105.752 176.337 105.987 177.509 106.175 178.714C106.456 180.504 106.681 182.332 107.003 184.107C107.107 184.675 107.4 185.192 107.421 185.762C107.434 186.112 107.538 186.686 107.673 187.008C108.024 187.84 107.9 188.859 108.202 189.704C108.546 190.668 108.641 191.788 108.951 192.795C109.229 193.701 109.55 194.861 109.55 195.807" stroke="black" stroke-width="3" stroke-linecap="round"/>
<path d="M45.9702 178.918C45.9702 177.783 45.9702 176.648 45.9702 175.512C45.9702 174.519 46.3418 173.649 46.396 172.674C46.42 172.242 46.473 171.649 46.6483 171.255C46.8842 170.724 46.7749 170.075 46.9952 169.552C47.3077 168.81 47.3912 167.975 47.5629 167.202C47.6567 166.78 47.6718 165.779 47.8861 165.436C48.0323 165.202 48.099 164.122 48.099 163.804C48.099 163.284 48.099 162.763 48.099 162.243C48.099 161.273 48.099 160.303 48.099 159.334C48.099 158.645 47.8699 156.839 48.9505 156.779C50.0711 156.717 50.9981 156.495 52.1437 156.495C54.2635 156.495 56.6398 156.378 58.7429 156.077C59.4979 155.97 60.33 156.069 61.0925 156.069C62.018 156.069 62.9342 155.928 63.852 155.928C65.28 155.928 66.6825 155.786 68.078 155.786C74.806 155.786 81.534 155.786 88.2621 155.786" stroke="black" stroke-width="3" stroke-linecap="round"/>
<path d="M88.262 155.786C89.5853 155.786 90.9557 155.644 92.2357 155.644C92.8783 155.644 93.4631 155.564 94.0964 155.494C95.1155 155.381 96.2987 155.411 97.2817 155.186C97.9392 155.036 99.7574 154.567 99.7574 155.502C99.7574 156.107 99.8993 156.697 99.8993 157.284C99.8993 157.875 99.8294 159.038 100.112 159.546C100.258 159.808 100.45 160.731 100.467 161.037C100.497 161.581 100.842 162.336 101.106 162.811C101.739 163.951 101.959 165.283 102.541 166.445C103.343 168.05 104.091 169.454 104.291 171.255C104.395 172.195 104.735 173.788 104.299 174.661" stroke="black" stroke-width="3" stroke-linecap="round"/>
<path d="M49.6601 156.779C49.6601 154.592 49.3762 152.456 49.3762 150.251C49.3762 148.572 49.3762 146.892 49.3762 145.213C49.3762 144.385 49.3762 143.557 49.3762 142.729C49.3762 141.758 49.6601 140.832 49.6601 139.891C49.6601 139.251 49.9057 137.917 50.1962 137.336C50.4599 136.809 50.9373 136.201 50.9373 135.633" stroke="black" stroke-width="3" stroke-linecap="round"/>
<path d="M50.9375 135.633C51.5472 135.395 52.2662 135.258 52.8455 134.995C53.29 134.792 53.7804 134.452 54.2647 134.364C55.0003 134.23 55.695 133.81 56.4723 133.788C56.7426 133.781 57.1519 133.71 57.3948 133.575C57.8824 133.304 58.3724 133.434 58.885 133.292C59.4429 133.137 60.126 133.388 60.6511 133.15C61.3294 132.841 62.3833 132.745 63.1425 132.661C64.9321 132.462 66.934 132.494 68.6143 131.73C70.2544 130.985 72.2531 131.327 73.9599 130.839C74.8951 130.572 76.2109 130.382 77.1846 130.382C78.1808 130.382 79.1437 130.098 80.1413 130.098C81.2975 130.098 82.43 129.956 83.5788 129.956C84.455 129.956 85.5994 129.735 86.4172 130.027C86.8226 130.172 87.4906 130.228 87.9153 130.24C88.4376 130.255 88.9329 130.506 89.4291 130.524C90.1591 130.55 91.3753 130.803 92.023 131.163C93.1079 131.765 94.4193 131.687 95.5 132.227" stroke="black" stroke-width="3" stroke-linecap="round"/>
<path d="M95.5 132.227C95.5 134.686 95.7838 137.031 95.7838 139.465C95.7838 141.099 96.4894 142.727 96.7852 144.353C97.1249 146.222 98.1965 148.124 98.1965 150.038C98.1965 150.881 98.4803 151.673 98.4803 152.522C98.4803 153.377 98.6222 154.118 98.6222 154.934" stroke="black" stroke-width="3" stroke-linecap="round"/>
<path d="M43.7349 198.175C43.7349 197.24 43.715 196.285 43.7783 195.352C43.8091 194.897 43.7538 194.409 43.8335 193.96C43.8779 193.711 43.8728 193.399 43.8768 193.144C43.8817 192.835 43.8768 192.524 43.8768 192.214C43.8768 191.597 43.8116 190.938 43.8847 190.326C44.029 189.117 44.0897 187.859 44.0897 186.644C44.0897 185.705 44.3492 184.772 44.4425 183.839C44.4814 183.45 44.6209 182.998 44.7815 182.64C44.8974 182.383 45.0476 182.015 45.0476 181.73C45.0476 181.397 45.3127 181.066 45.365 180.752C45.4059 180.507 45.6394 180.362 45.7218 180.135C45.7903 179.947 45.9438 179.805 46.0411 179.635C46.0836 179.56 46.1406 179.5 46.183 179.426C46.2209 179.359 46.3244 179.343 46.3604 179.28C46.4156 179.183 46.751 179.175 46.8571 179.122" stroke="black" stroke-width="3" stroke-linecap="round"/>
<path d="M75.0637 199.346C77.0966 199.346 78.92 198.916 80.906 198.51C81.1346 198.463 81.4177 198.432 81.6472 198.423C81.8465 198.416 82.012 198.281 82.2149 198.281C82.5742 198.281 82.9167 198.14 83.295 198.14C83.6702 198.14 84.1556 198.089 84.5171 197.982C85.02 197.833 85.6227 197.932 86.0979 197.749C86.4289 197.622 87.0273 197.501 87.3791 197.501C87.8804 197.501 88.3759 197.43 88.885 197.43C89.7642 197.43 90.6433 197.43 91.5224 197.43C91.9376 197.43 93.6656 197.43 94.0809 197.43" stroke="black" stroke-width="3" stroke-linecap="round"/>
<path d="M407.888 144.139C407.888 142.718 407.446 141.411 407.324 140.007C407.279 139.484 407.343 138.838 407.194 138.336C407.032 137.788 407.179 136.983 407.179 136.408C407.179 135.621 407.179 134.834 407.179 134.047C407.179 133.135 407.179 132.223 407.179 131.311C407.179 130.348 407.391 129.401 407.391 128.433C407.391 127.964 407.462 127.504 407.462 127.038C407.462 126.54 407.592 126.072 407.604 125.587C407.621 124.912 407.604 124.235 407.604 123.561" stroke="black" stroke-width="3" stroke-linecap="round"/>
<path d="M407.604 123.561C407.604 122.35 407.564 121.183 407.817 119.997C407.957 119.342 407.999 118.668 408.176 118.018C408.463 116.964 408.839 115.898 409.252 114.888C409.624 113.978 409.986 112.914 410.549 112.101C410.835 111.688 411.154 111.321 411.436 110.914C412.166 109.86 413.284 109.224 414.448 108.801C414.703 108.709 414.943 108.524 415.193 108.411C415.434 108.303 415.697 108.23 415.922 108.092C416.141 107.957 416.413 107.922 416.632 107.776C416.858 107.626 417.1 107.476 417.357 107.382C418.495 106.968 419.64 106.544 420.732 105.998C421.577 105.576 422.404 104.95 423.326 104.701C423.905 104.545 424.55 104.205 425.131 104.122C425.71 104.039 426.289 103.721 426.85 103.534C427.174 103.427 427.513 103.3 427.824 103.164C427.973 103.099 428.253 103.196 428.324 103.053" stroke="black" stroke-width="3" stroke-linecap="round"/>
<path d="M427.828 103.196C428.476 103.057 428.984 102.674 429.598 102.49C430.166 102.32 430.738 102.182 431.305 102.025C432.144 101.792 432.992 101.715 433.839 101.524C435.496 101.15 437.181 101.153 438.874 101.138C440.037 101.127 441.205 101.067 442.374 101.067C443.391 101.067 444.408 101.067 445.426 101.067C446.457 101.067 447.393 101.202 448.406 101.347C449.056 101.44 449.572 101.505 450.196 101.721C450.802 101.931 451.42 102.201 451.954 102.557" stroke="black" stroke-width="3" stroke-linecap="round"/>
<path d="M451.954 102.628C452.444 102.639 452.897 102.839 453.357 102.998C453.619 103.089 454.03 103.323 454.296 103.337C454.657 103.356 455.206 103.345 455.533 103.463C456.175 103.697 456.955 103.471 457.615 103.676C458.753 104.03 459.977 104.058 461.123 104.386C461.507 104.495 461.912 104.484 462.298 104.599C462.659 104.706 463.179 104.772 463.504 104.969C464.221 105.405 465.065 105.631 465.775 106.105C466.438 106.546 467.099 107.019 467.762 107.453C468.215 107.749 468.602 108.206 468.984 108.588C469.38 108.984 469.765 109.346 469.765 109.937" stroke="black" stroke-width="3" stroke-linecap="round"/>
<path d="M469.694 110.079C469.914 110.65 470.203 111.265 470.577 111.746C470.799 112.032 470.926 112.38 471.168 112.649C471.295 112.79 471.525 113.145 471.539 113.327C471.553 113.51 471.829 113.836 471.929 114.017C472.14 114.396 472.394 114.874 472.674 115.188C473.083 115.644 473.404 116.285 473.703 116.816C474.015 117.371 474.306 118.091 474.306 118.736C474.306 119.588 474.337 120.449 474.231 121.294C474.172 121.772 474.022 122.228 474.022 122.709" stroke="black" stroke-width="3" stroke-linecap="round"/>
<path d="M474.022 122.709C474.022 124.39 473.951 126.063 473.951 127.747C473.951 129.57 473.955 131.368 473.612 133.156C473.235 135.124 472.788 137.099 472.745 139.116C472.717 140.456 472.674 141.8 472.674 143.145" stroke="black" stroke-width="3" stroke-linecap="round"/>
<path d="M472.674 143.146C472.674 144.061 472.603 145 472.603 145.897C472.603 146.184 472.3 146.804 472.138 147.013C471.911 147.305 471.668 147.513 471.389 147.762C470.868 148.225 470.115 148.525 469.516 148.858C469.038 149.124 468.421 149.131 467.904 149.303C467.103 149.57 466.17 149.461 465.334 149.461C464.494 149.461 463.654 149.461 462.815 149.461C461.446 149.461 460.141 149.248 458.766 149.248" stroke="black" stroke-width="3" stroke-linecap="round"/>
<path d="M458.979 149.319C457.753 149.319 456.551 149.177 455.328 149.177C453.31 149.177 451.294 149.194 449.301 148.854C447.094 148.477 444.858 148.099 442.634 147.829C441.381 147.677 440.159 147.403 438.889 147.403C436.968 147.403 435.039 147.454 433.118 147.403C432.336 147.383 431.569 147.19 430.784 147.19C430.318 147.19 429.793 147.152 429.334 147.064C428.572 146.919 427.771 146.978 426.992 146.978C426.248 146.978 425.505 146.836 424.776 146.836" stroke="black" stroke-width="3" stroke-linecap="round"/>
<path d="M424.706 146.835C423.839 146.835 423.132 146.673 422.293 146.496C421.457 146.32 420.615 146.251 419.774 146.122C418.983 146 418.166 145.985 417.365 145.909C416.932 145.868 416.491 145.811 416.052 145.767C415.601 145.722 415.07 145.706 414.629 145.613C413.732 145.424 412.711 145.487 411.791 145.487C411.223 145.487 410.656 145.487 410.088 145.487C409.482 145.487 408.03 145.721 408.03 144.778" stroke="black" stroke-width="3" stroke-linecap="round"/>
<path d="M415.835 145.416C419.169 145.416 422.559 145.31 425.77 144.368C426.463 144.164 427.257 143.997 427.985 143.997C428.607 143.997 429.22 143.876 429.83 143.855C431.52 143.797 433.311 143.94 434.987 143.678C435.801 143.551 436.601 143.436 437.415 143.323C438.384 143.188 439.352 143.097 440.313 142.897C440.678 142.821 441.057 142.91 441.42 142.822C441.823 142.725 442.225 142.714 442.627 142.617C443.306 142.453 444.099 142.419 444.799 142.361C446.801 142.194 448.805 142.01 450.818 142.01" stroke="black" stroke-width="3" stroke-linecap="round"/>
<path d="M450.818 142.01C453.529 142.01 456.255 141.828 458.924 141.317C459.842 141.141 460.782 141.152 461.703 140.982C462.084 140.911 462.559 140.906 462.917 140.769C463.2 140.66 463.685 140.548 463.985 140.524C465.519 140.402 467.049 140.378 468.594 140.378C469.136 140.378 469.663 140.449 470.19 140.449C470.569 140.449 471.132 140.353 471.468 140.52" stroke="black" stroke-width="3" stroke-linecap="round"/>
<path d="M417.397 107.098C417.397 102.038 417.326 96.99 417.326 91.9289C417.326 90.9118 417.326 89.8947 417.326 88.8776C417.326 87.4977 417.22 86.0728 417.33 84.6989C417.399 83.8297 417.751 82.992 417.751 82.1207C417.751 81.6538 417.964 81.2174 417.964 80.7725" stroke="black" stroke-width="3" stroke-linecap="round"/>
<path d="M417.964 80.7722C418.116 80.0625 418.638 79.3335 419.115 78.8011C419.475 78.4005 419.685 77.8877 420.148 77.579C421.027 76.9929 422.02 76.3642 422.987 75.9469C423.558 75.7004 424.15 75.2879 424.69 74.9693C425.39 74.5557 426.14 74.2192 426.85 73.8181C428.1 73.1123 429.452 72.5292 430.737 71.8865C431.957 71.2767 433.233 70.7624 434.565 70.4515C435.543 70.2233 436.501 69.9863 437.51 69.9863C438.148 69.9863 438.787 69.9863 439.426 69.9863C440.704 69.9863 441.961 70.1895 443.23 70.2741C444.807 70.3793 446.487 71.0325 447.949 71.5869C449.097 72.0226 450.161 72.7087 451.244 73.2505" stroke="black" stroke-width="3" stroke-linecap="round"/>
<path d="M451.244 73.2505C451.715 73.2617 452.023 73.5481 452.451 73.6092C452.751 73.6522 453.118 73.7999 453.409 73.8891C454.274 74.1556 455.297 74.5116 456.211 74.5948C456.897 74.6571 457.643 74.9493 458.261 75.2531C458.581 75.4101 459.142 75.5686 459.405 75.805C459.628 76.006 459.981 76.1222 460.24 76.3017C460.567 76.5279 460.822 76.8511 461.108 77.1217C461.619 77.6065 461.997 78.13 462.424 78.6789C462.851 79.2278 462.997 79.7232 463.268 80.3425C463.398 80.6408 463.578 80.9048 463.717 81.1979C463.88 81.5403 463.884 81.9256 464.001 82.2781C464.177 82.8068 464.159 83.3378 464.159 83.8944" stroke="black" stroke-width="3" stroke-linecap="round"/>
<path d="M464.159 84.249C464.159 85.9573 464.159 87.6656 464.159 89.3739C464.159 91.0716 464.159 92.7694 464.159 94.4672C464.159 95.3337 464.186 96.2267 464.246 97.0927C464.297 97.8498 464.19 98.676 464.317 99.4186C464.441 100.148 464.372 100.927 464.372 101.67C464.372 101.914 464.504 102.711 464.356 102.896C464.239 103.042 464.228 103.234 464.119 103.373C464.034 103.482 463.844 103.676 463.808 103.802C463.687 104.225 463.453 104.675 463.307 105.111" stroke="black" stroke-width="3" stroke-linecap="round"/>
<path d="M422.86 75.6632C422.86 73.6084 422.863 71.5526 422.931 69.5055C422.971 68.304 423.193 67.0506 423.428 65.8748C423.753 64.2507 424.539 62.7032 425.096 61.156C425.543 59.9148 425.981 58.6464 426.109 57.3242C426.179 56.6011 426.196 55.8822 426.196 55.156C426.196 54.9284 426.12 54.5397 426.231 54.3399C426.467 53.9154 426.265 53.2614 426.464 52.8143C426.632 52.4361 426.692 51.8823 426.692 51.4661" stroke="black" stroke-width="3" stroke-linecap="round"/>
<path d="M426.692 51.4661C426.692 51.1606 426.675 50.849 426.692 50.5436C426.703 50.3432 426.904 50.2054 426.992 50.0469C427.21 49.6553 427.905 49.0112 428.289 48.8406C428.537 48.7304 428.699 48.5062 428.928 48.3794C429.137 48.2633 429.357 48.1535 429.531 47.9891C429.846 47.6902 430.333 47.5909 430.702 47.3859C430.946 47.2499 431.491 47.3505 431.766 47.3505C432.412 47.3505 433.002 47.4021 433.638 47.5081C434.69 47.6834 435.66 47.8446 436.627 48.3281C437.498 48.7636 438.371 49.9449 438.539 50.8669C438.743 51.9912 439.039 53.1541 439.039 54.3045C439.039 55.6991 439.242 57.205 439.552 58.5621C439.745 59.4084 439.962 60.3209 439.962 61.1876" stroke="black" stroke-width="3" stroke-linecap="round"/>
<path d="M439.962 61.4712C439.962 62.4935 439.962 63.5159 439.962 64.5382C439.962 65.2164 440.166 65.8854 440.313 66.5448C440.438 67.1108 440.586 67.8375 440.845 68.3543C441.056 68.7764 441.232 69.2563 441.381 69.7025" stroke="black" stroke-width="3" stroke-linecap="round"/>
<path d="M432.582 46.9955C432.582 45.9512 432.481 44.8464 432.653 43.8141C432.817 42.8301 432.866 41.8401 432.866 40.8377C432.866 40.1755 432.985 39.489 433.094 38.8351C433.252 37.8921 433.361 36.9848 433.638 36.0519C433.824 35.43 433.87 34.7697 434.072 34.1518C434.257 33.5868 434.552 33.004 434.64 32.4133C434.71 31.936 435.077 31.455 435.247 30.9941C435.416 30.5353 435.699 30.1171 435.917 29.6813C436.419 28.6778 437.025 27.7585 437.652 26.8469C438.061 26.251 438.541 25.5759 439.11 25.1242C439.441 24.8616 439.687 24.6708 440.068 24.5013C440.365 24.3693 440.664 24.3245 440.955 24.2017C441.699 23.8887 442.643 23.7211 443.45 23.6537C444.075 23.6017 444.689 23.6706 445.311 23.5749C445.772 23.5039 446.232 23.5079 446.703 23.5079C448.17 23.5079 449.863 23.2731 451.268 23.7168C451.954 23.9336 452.742 24.4037 453.46 24.4303C453.923 24.4475 454.367 24.8922 454.721 25.1399C455.119 25.4182 455.725 25.7831 455.928 26.2398C456.486 27.4954 456.282 29.037 456.282 30.3909" stroke="black" stroke-width="3" stroke-linecap="round"/>
<path d="M456.211 29.9653C456.211 30.6859 456.126 31.5659 456.408 32.236C456.5 32.4535 456.481 32.7504 456.566 32.9851C456.716 33.3983 456.867 33.818 457.008 34.2387C457.702 36.3223 458.198 38.5059 458.198 40.7196C458.198 41.5054 458.198 42.2913 458.198 43.0771C458.198 43.7258 458.34 44.3704 458.34 45.0087C458.34 46.0612 458.482 47.1653 458.482 48.2019" stroke="black" stroke-width="3" stroke-linecap="round"/>
<path d="M458.482 48.2017C458.482 49.9489 458.513 51.6993 458.553 53.4369C458.578 54.517 458.553 55.6009 458.553 56.6813C458.553 57.9499 458.688 59.306 458.537 60.5644C458.303 62.5288 458.126 64.4424 457.686 66.3673C457.475 67.2883 457.161 68.2086 456.992 69.1347C456.896 69.6637 456.805 70.2628 456.637 70.7668" stroke="black" stroke-width="3" stroke-linecap="round"/>
<path d="M456.637 70.9797C456.637 71.4152 456.749 72.1122 456.531 72.5054C456.338 72.8524 456.424 73.4219 456.424 73.8181" stroke="black" stroke-width="3" stroke-linecap="round"/>
<path d="M59.5481 101.208C58.3967 101.37 57.316 101.978 56.3194 102.557C55.6382 102.952 54.9248 103.26 54.2616 103.688C53.6328 104.094 52.9589 104.573 52.2668 104.863C50.8846 105.443 49.5484 106.196 48.301 107.027C47.1154 107.818 45.8619 108.484 44.6111 109.16C43.4443 109.791 42.3451 110.538 41.1696 111.159C40.65 111.433 40.1699 111.812 39.6794 112.136C39.027 112.567 38.3337 113.056 37.7793 113.611C36.6807 114.709 35.5124 115.736 34.4127 116.835C33.6701 117.578 32.9432 118.338 32.1577 119.035C31.704 119.438 31.2447 119.911 30.9514 120.439" stroke="black" stroke-width="3" stroke-linecap="round"/>
<path d="M31.2352 120.013C30.3758 120.754 29.4911 121.452 28.6097 122.157C27.9647 122.673 27.4022 123.238 26.8042 123.801C26.3235 124.255 25.7855 124.65 25.3141 125.114C24.5992 125.817 23.8638 126.47 23.1853 127.207C22.8166 127.608 22.3648 127.95 22.046 128.394C21.8093 128.723 21.5864 129.046 21.3324 129.364C20.2976 130.657 19.4192 132.068 18.3876 133.357C17.4262 134.559 16.5937 135.821 15.5611 136.968C14.7071 137.917 14.0093 139.025 13.2076 140.027C12.2987 141.163 11.4058 142.39 10.657 143.638C10.4101 144.05 10.0739 144.554 9.75028 144.904C9.51937 145.153 9.42792 145.557 9.23779 145.842" stroke="black" stroke-width="3" stroke-linecap="round"/>
<path d="M9.09591 145.771C8.91991 146.612 8.48692 147.344 8.10642 148.105C7.603 149.112 7.12055 150.13 6.61233 151.132C6.25997 151.827 5.93621 152.521 5.65832 153.253C5.49021 153.696 5.28751 154.13 5.12612 154.574C4.95807 155.036 4.98993 155.518 4.84228 155.985C4.12156 158.268 4.0497 160.752 3.52559 163.081C3.27788 164.182 3.23667 165.299 3.04859 166.404C2.99673 166.709 3.07495 167.834 2.78052 167.981" stroke="black" stroke-width="3" stroke-linecap="round"/>
<path d="M2.78055 167.698C2.78055 168.134 2.78055 168.57 2.78055 169.006C2.78055 169.758 2.62282 170.464 2.57162 171.206C2.48903 172.404 2.07096 173.55 2.07096 174.762C2.07096 176.056 2 177.361 2 178.661C2 179.678 2.21288 180.689 2.21288 181.712C2.21288 182.659 2.28384 183.609 2.28384 184.562C2.28384 186.074 2.52199 187.565 2.56768 189.072C2.59886 190.101 2.82101 191.222 3.0092 192.234C3.08162 192.623 3.20631 192.991 3.20631 193.385" stroke="black" stroke-width="3" stroke-linecap="round"/>
<path d="M2.99365 193.243C2.99365 194.023 3.20653 194.723 3.20653 195.498C3.20653 196.324 3.49495 197.082 3.56527 197.891C3.58905 198.164 3.73545 198.443 3.80969 198.707C3.90589 199.049 3.91415 199.385 4.04228 199.716C4.15794 200.015 4.22023 200.367 4.31034 200.678C4.41906 201.052 4.56166 201.441 4.62572 201.825C4.78418 202.776 5.2739 203.75 5.55608 204.667C5.94721 205.939 6.37743 207.184 6.73085 208.468C7.47707 211.179 8.20335 213.895 8.89906 216.62C9.12795 217.517 9.63643 218.241 10.1251 219.001C10.4933 219.574 11.0286 220.02 11.3353 220.633C11.59 221.143 11.8708 221.726 12.0055 222.265" stroke="black" stroke-width="3" stroke-linecap="round"/>
<path d="M11.8633 222.194C11.8633 223.014 11.9927 223.712 12.4388 224.426C12.7768 224.966 12.9677 225.61 13.3377 226.137C13.6625 226.599 13.8881 227.159 14.2049 227.642C14.4062 227.95 14.6364 228.226 14.8436 228.525C15.4343 229.379 16.0136 230.201 16.5624 231.096C17.4242 232.501 18.3663 233.841 19.2667 235.219C19.6511 235.808 20.0358 236.369 20.5558 236.844C21.1901 237.423 22.4652 239.175 23.2168 239.579" stroke="black" stroke-width="3" stroke-linecap="round"/>
<path d="M22.8623 238.941C23.443 240.102 24.54 240.93 25.4839 241.779C25.8209 242.083 26.1319 242.423 26.4497 242.741C26.7604 243.052 27.1482 243.259 27.4826 243.522C28.295 244.16 29.2312 244.619 30.0332 245.26C31.1835 246.181 32.5031 246.702 33.7979 247.35C34.9241 247.913 36.3963 248.04 37.6219 248.252C38.2056 248.353 43.3586 249.391 43.9373 249.514" stroke="black" stroke-width="3" stroke-linecap="round"/>
<path d="M112.697 251.572C113.357 251.572 114.007 251.528 114.66 251.501C115.486 251.466 116.357 251.082 117.163 250.894C118.201 250.651 119.273 250.276 120.282 249.94C121.482 249.539 122.659 249.015 123.826 248.524C124.93 248.059 126.064 247.535 127.031 246.817C127.829 246.224 128.565 245.581 129.447 245.11C130.143 244.739 130.826 244.18 131.446 243.695C132.24 243.074 133.056 242.479 133.744 241.732C134.484 240.928 135.423 240.341 136.184 239.579C136.502 239.262 136.985 239.02 137.355 238.763C137.836 238.431 138.421 238.046 138.794 237.593C139.055 237.276 139.477 237.138 139.768 236.848C140.07 236.545 140.511 236.318 140.868 236.087C141.102 235.935 141.221 235.672 141.506 235.57C141.673 235.511 141.861 235.384 141.971 235.243C142.133 235.037 142.409 234.729 142.642 234.612" stroke="black" stroke-width="3" stroke-linecap="round"/>
<path d="M142.358 235.109C142.957 234.668 143.59 234.201 144.096 233.651C144.373 233.35 144.661 233.052 144.983 232.799C145.258 232.583 145.668 232.201 145.866 231.912C146.012 231.7 146.199 231.534 146.363 231.332C146.821 230.77 147.319 230.197 147.806 229.661C148.145 229.288 148.429 228.883 148.705 228.463C149.093 227.87 149.519 227.298 149.895 226.704C150.556 225.661 151.09 224.587 151.657 223.499C151.969 222.902 152.355 222.347 152.682 221.765C153.045 221.121 153.541 220.588 153.924 219.959C154.212 219.486 154.42 218.86 154.811 218.469C155.175 218.105 155.441 217.604 155.753 217.188C155.966 216.904 156.15 216.621 156.392 216.36C156.546 216.194 156.783 215.938 156.889 215.737C157.128 215.28 157.439 214.879 157.653 214.42C157.835 214.031 158.013 213.669 158.182 213.289C158.338 212.937 158.326 212.508 158.536 212.173C158.974 211.478 159.314 210.719 159.727 210.005C159.943 209.632 160.048 209.179 160.224 208.783C160.319 208.569 160.452 208.154 160.452 207.932" stroke="black" stroke-width="3" stroke-linecap="round"/>
<path d="M160.311 208.783C160.311 208.217 160.213 207.648 160.326 207.096C160.43 206.588 160.646 206.118 160.807 205.629C161.258 204.263 161.669 202.851 161.927 201.435C162.146 200.229 162.503 199.057 162.739 197.855C162.827 197.407 162.98 196.946 163.094 196.499C163.224 195.989 163.252 195.473 163.362 194.962C163.53 194.179 163.678 193.384 163.89 192.612C164.248 191.31 164.437 189.982 164.884 188.706C165.053 188.222 164.983 187.643 165.175 187.176C165.317 186.831 165.358 186.468 165.424 186.108C165.661 184.802 165.633 183.505 165.633 182.173" stroke="black" stroke-width="3" stroke-linecap="round"/>
<path d="M165.845 182.812C165.845 182.096 165.898 181.357 165.841 180.644C165.751 179.515 165.421 178.36 165.222 177.246C165.001 176.008 164.71 174.822 164.71 173.556C164.71 171.918 164.639 170.289 164.639 168.652C164.639 167.457 164.639 166.263 164.639 165.068C164.639 164.526 164.548 163.993 164.461 163.46C164.37 162.891 164.379 162.315 164.229 161.753C164.055 161.099 164.213 160.247 164.213 159.569C164.213 159.076 164.158 158.448 164 157.976" stroke="black" stroke-width="3" stroke-linecap="round"/>
<path d="M164.213 158.757C164.213 157.793 163.708 157.061 163.433 156.167C163.199 155.408 162.802 154.692 162.597 153.931C162.452 153.396 162.196 152.897 162.014 152.37C161.728 151.546 161.463 150.708 161.162 149.891C160.45 147.958 159.501 146.083 158.962 144.1C158.76 143.354 158.366 142.665 158.111 141.939C157.796 141.045 157.677 140.079 157.366 139.18C157.018 138.175 156.883 136.899 156.25 136.018C155.653 135.187 155.242 134.242 154.598 133.456C154.208 132.978 154.103 132.344 153.782 131.863" stroke="black" stroke-width="3" stroke-linecap="round"/>
<path d="M58.7676 101.066C60.4468 100.227 62.1316 99.6387 63.9318 99.1505C64.7499 98.9287 65.5778 98.8534 66.3997 98.6538C67.3661 98.4191 68.3335 98.2172 69.3011 97.9836C71.2855 97.5046 73.3462 97.1241 75.3879 97.0927C75.9521 97.084 76.5508 96.9582 77.1145 96.8956C77.6236 96.839 78.1277 96.7794 78.6362 96.7221C79.5114 96.6235 80.3864 96.5297 81.2617 96.4501C81.9628 96.3864 82.7428 96.3079 83.426 96.1308C84.4391 95.8681 85.6081 95.8229 86.6507 95.7484C88.5234 95.6146 90.3812 95.6025 92.2604 95.6025C93.4735 95.6025 94.593 95.7396 95.769 95.9534C96.0807 96.0101 96.56 95.9807 96.8373 96.1347C97.0148 96.2333 97.454 96.3121 97.6534 96.3121" stroke="black" stroke-width="3" stroke-linecap="round"/>
<path d="M97.1565 96.1704C99.1895 96.1704 101.218 96.7362 103.141 97.361C104.668 97.8573 106.298 97.968 107.871 98.244C108.564 98.3656 109.222 98.6362 109.894 98.8314C110.565 99.0262 111.309 99.076 111.948 99.3636C112.887 99.7865 113.882 100.124 114.829 100.538C115.474 100.82 116.177 101.073 116.848 101.279C117.703 101.543 118.462 102.09 119.229 102.521C119.763 102.822 120.412 103.066 120.892 103.44C121.172 103.657 121.93 103.905 122.276 103.905" stroke="black" stroke-width="3" stroke-linecap="round"/>
<path d="M121.921 103.976C122.52 104.281 123.094 104.614 123.695 104.914C124.242 105.188 124.816 105.588 125.398 105.766C125.998 105.949 126.605 106.334 127.172 106.602C127.458 106.736 127.78 106.837 128.079 106.941C128.381 107.045 128.631 107.231 128.931 107.327C130.905 107.962 132.707 109.357 134.339 110.591C134.941 111.046 135.477 111.545 136.129 111.939C136.676 112.27 137.204 112.624 137.73 112.988C138.489 113.514 139.386 114.078 139.858 114.904C140.063 115.261 140.453 115.826 140.797 116.055C141.193 116.319 141.483 116.912 141.806 117.261C142.067 117.543 142.306 117.833 142.571 118.097C142.794 118.32 143.071 118.465 143.296 118.68C143.631 119.002 143.951 119.316 144.289 119.642C144.483 119.829 144.69 120.257 144.912 120.368" stroke="black" stroke-width="3" stroke-linecap="round"/>
<path d="M144.913 120.439C145.178 121.218 145.818 121.656 146.206 122.355C146.454 122.802 146.947 123.175 147.298 123.525C147.497 123.724 147.758 123.882 147.968 124.066C148.386 124.431 148.786 124.87 149.135 125.296C149.437 125.665 149.882 125.897 150.156 126.285C150.477 126.74 150.934 127.128 151.299 127.55C152.173 128.561 153.03 129.47 153.747 130.586C154.43 131.648 154.875 132.877 154.989 134.134" stroke="black" stroke-width="3" stroke-linecap="round"/>
<path d="M256.673 88.4358C254.762 88.4358 252.799 88.5777 250.926 88.5777C248.033 88.5777 245.153 89.1863 242.269 89.4371C239.502 89.6777 236.792 90.0337 234.1 90.7065C230.665 91.5652 227.312 92.8292 223.969 93.9706C221.199 94.9164 218.407 96.0099 215.974 97.6605C213.724 99.1872 211.762 100.894 209.619 102.533C207.634 104.052 205.745 105.662 203.99 107.484C203.077 108.433 202.438 109.618 201.593 110.583C200.892 111.385 200.081 112.211 199.622 113.13" stroke="black" stroke-width="3" stroke-linecap="round"/>
<path d="M199.338 113.13C198.789 114.488 197.759 115.425 197.099 116.678C196.384 118.038 195.567 119.355 195.002 120.809C194.375 122.421 193.624 124.003 192.818 125.548C191.908 127.292 191.399 129.264 190.429 130.98C190.146 131.481 190.166 132.016 189.972 132.541C189.756 133.124 189.493 133.662 189.372 134.276C189.122 135.551 188.615 136.946 188.095 138.139C187.002 140.65 186.278 143.4 185.012 145.826C183.449 148.822 182.941 152.389 181.882 155.564" stroke="black" stroke-width="3" stroke-linecap="round"/>
<path d="M181.74 155.422C181.74 156.368 181.74 157.314 181.74 158.26C181.74 159.221 181.492 160.176 181.456 161.13C181.428 161.9 181.456 162.677 181.456 163.448C181.456 163.844 181.194 164.248 181.173 164.646C181.151 165.059 181.173 165.479 181.173 165.892C181.173 166.915 181.456 167.843 181.456 168.896C181.456 170.092 181.456 171.288 181.456 172.483C181.456 173.064 181.243 173.589 181.181 174.155C181.109 174.799 181.133 175.519 180.96 176.142C180.674 177.171 180.889 178.511 180.889 179.579C180.889 180.6 180.798 181.847 181.102 182.82C181.554 184.267 181.308 186.005 181.63 187.495C182.142 189.862 182.734 192.479 182.734 194.907C182.734 196.384 182.734 197.861 182.734 199.338C182.734 200.708 182.993 202.043 183.018 203.406C183.049 205.155 183.193 206.976 183.514 208.712C183.704 209.736 184.153 210.907 184.153 211.905" stroke="black" stroke-width="3" stroke-linecap="round"/>
<path d="M184.153 211.905C184.153 213.115 184.631 214.115 185.288 215.138C185.797 215.929 186.068 216.932 186.629 217.653C187.148 218.321 187.785 219.38 188.095 220.168C188.65 221.581 189.483 223.006 190.169 224.378C190.775 225.591 191.761 226.814 192.235 228.076C192.536 228.88 193.281 229.472 193.693 230.213C194.09 230.928 195.079 231.71 195.712 232.192C196.84 233.052 198.135 233.794 199.196 234.754C200.715 236.128 202.716 236.798 204.377 237.947C205.18 238.503 206.267 238.707 207.144 239.122C207.86 239.461 208.67 239.668 209.415 239.934C212.507 241.039 215.755 242.276 219.065 242.276" stroke="black" stroke-width="3" stroke-linecap="round"/>
<path d="M219.065 242.418C220.074 242.418 220.987 242.558 221.974 242.709C222.9 242.852 223.908 242.944 224.821 243.159C226.631 243.585 228.72 243.695 230.592 243.695C234.244 243.695 237.928 243.837 241.599 243.837C243.776 243.837 245.926 243.553 248.087 243.553C249.255 243.553 250.593 243.372 251.738 243.159C252.67 242.985 253.851 243.399 254.742 243.056C255.506 242.763 256.939 242.873 257.777 242.844C258.711 242.81 259.639 242.418 260.584 242.418C261.424 242.418 262.212 242.276 263.06 242.276C263.957 242.276 264.798 241.992 265.677 241.992C266.837 241.992 267.971 241.85 269.131 241.85" stroke="black" stroke-width="3" stroke-linecap="round"/>
<path d="M268.595 241.85C271.392 241.85 274.217 241.515 276.842 240.494C278.168 239.979 279.706 239.71 281.084 239.327C282.471 238.942 284.127 238.384 285.562 238.302C286.421 238.253 287.228 237.792 288.109 237.727C289 237.661 289.853 237.359 290.718 237.167C292.18 236.842 293.65 236.21 295.141 236.024C296.182 235.894 297.154 235.347 298.185 235.188C299.181 235.035 300.284 234.74 301.236 234.4C302.154 234.072 303.189 234.044 304.074 233.651C304.49 233.466 305.099 233.494 305.557 233.335C306.318 233.072 307.12 232.698 307.843 232.342C309.871 231.343 312.017 230.516 313.93 229.298C315.833 228.087 317.904 227.162 319.969 226.129" stroke="black" stroke-width="3" stroke-linecap="round"/>
<path d="M319.26 226.665C319.713 226.225 320.669 225.681 320.963 225.167C321.265 224.637 321.988 224.363 322.271 223.826C322.605 223.196 322.986 222.777 323.438 222.194C324.072 221.379 324.547 220.384 325.291 219.64C327.084 217.847 328.603 215.72 330.329 213.892C331.674 212.468 332.984 211.064 334.169 209.485C335.799 207.312 337.414 204.973 338.632 202.539C339.539 200.725 340.863 199.117 341.509 197.177C342.263 194.918 342.38 192.441 343.165 190.2C343.702 188.666 343.529 186.924 344.237 185.508" stroke="black" stroke-width="3" stroke-linecap="round"/>
<path d="M343.812 186.218C344.402 183.045 345.373 180.076 345.373 176.843C345.373 173.116 345.515 169.406 345.515 165.671C345.515 163.95 345.089 162.213 345.089 160.531C345.089 158.655 344.663 156.838 344.663 154.98C344.663 152.573 344.663 150.165 344.663 147.758" stroke="black" stroke-width="3" stroke-linecap="round"/>
<path d="M344.521 148.609C344.521 146.503 343.68 144.534 342.787 142.649C340.5 137.822 338.955 132.629 336.637 127.794C334.731 123.82 333.346 119.681 331.607 115.652C331.104 114.487 330.449 113.091 329.557 112.199C329.056 111.698 328.551 110.892 327.917 110.575" stroke="black" stroke-width="3" stroke-linecap="round"/>
<path d="M256.248 88.2939C258.068 88.2939 259.827 88.4359 261.64 88.4359C262.821 88.4359 264.038 88.7197 265.267 88.7197C266.928 88.7197 268.589 88.7197 270.25 88.7197C273.236 88.7197 276.221 88.7197 279.207 88.7197C280.955 88.7197 282.587 89.5315 284.324 89.7053C285.777 89.8506 287.216 90.0199 288.676 90.1468C290.126 90.2728 291.543 90.5646 293.005 90.5646C294.333 90.5646 295.608 90.9999 296.915 91.1244C298.644 91.2891 300.545 91.9005 302.087 92.6934C302.76 93.0393 303.414 93.2727 304.114 93.5607C305.082 93.9592 306.136 94.5056 307.133 94.7907C309.487 95.463 311.939 96.6844 314.08 97.8735C314.762 98.2528 315.583 98.6669 316.137 99.2217C316.698 99.7822 317.628 100.215 317.982 100.925" stroke="black" stroke-width="3" stroke-linecap="round"/>
<path d="M221.903 218.291C221.903 217.005 221.974 215.702 221.974 214.428C221.974 212.519 221.832 210.527 222.081 208.637C222.235 207.462 222.187 206.276 222.187 205.093C222.187 204.803 222.215 204.382 222.294 204.1C222.423 203.635 222.351 203.016 222.384 202.538C222.512 200.686 222.4 198.789 222.4 196.933" stroke="black" stroke-width="3" stroke-linecap="round"/>
<path d="M222.4 196.933C222.4 194.625 222.684 192.357 222.684 190.046C222.684 189.085 223.27 188.322 223.662 187.495C223.91 186.97 224.145 186.426 224.422 185.903C224.688 185.402 225.353 184.999 225.846 184.759C226.33 184.524 226.884 184.551 227.367 184.357C227.899 184.145 228.605 184.089 229.177 184.089C230.158 184.089 231.158 184.018 232.126 184.018C232.586 184.018 233.038 183.805 233.501 183.805C233.988 183.805 234.474 183.805 234.96 183.805C236.45 183.805 237.94 183.805 239.43 183.805" stroke="black" stroke-width="3" stroke-linecap="round"/>
<path d="M239.431 183.876C241.947 183.876 244.464 183.876 246.98 183.876C248.613 183.876 250.257 183.805 251.88 183.805C253.103 183.805 254.29 183.757 255.452 184.144C256.228 184.403 257.137 184.551 257.947 184.653C258.749 184.753 259.219 185.298 259.686 185.898C259.872 186.139 259.946 186.481 260.064 186.746C260.179 187.005 260.474 187.428 260.506 187.708C260.545 188.065 260.769 188.401 260.789 188.772C260.8 188.963 260.931 189.098 260.931 189.308C260.931 189.508 260.931 189.708 260.931 189.908" stroke="black" stroke-width="3" stroke-linecap="round"/>
<path d="M260.931 189.979C260.931 190.956 260.802 192.048 261.018 192.991C261.245 193.986 261.641 195.011 261.641 196.042C261.641 196.727 261.83 197.402 261.853 198.084C261.874 198.678 261.959 199.536 262.173 200.09C262.352 200.556 262.193 201.139 262.405 201.616C262.553 201.949 262.634 202.529 262.634 202.893" stroke="black" stroke-width="3" stroke-linecap="round"/>
<path d="M262.634 203.035C262.634 206.277 262.634 209.519 262.634 212.761C262.634 214.226 262.634 215.691 262.634 217.156C262.634 217.641 262.634 218.126 262.634 218.611C262.634 218.869 262.727 219.806 262.492 219.924" stroke="black" stroke-width="3" stroke-linecap="round"/>
<path d="M262.492 219.924C260.492 219.924 258.498 219.995 256.492 219.995C254.338 219.995 252.148 219.924 249.976 219.924C245.917 219.924 241.857 219.924 237.798 219.924" stroke="black" stroke-width="3" stroke-linecap="round"/>
<path d="M237.727 219.923C236.965 219.923 236.217 219.908 235.472 220.05C234.675 220.201 233.807 220.278 232.989 220.278C232.191 220.278 231.402 220.349 230.6 220.349C229.77 220.349 228.783 220.325 227.99 220.081C227.752 220.008 227.405 219.963 227.154 219.927C226.869 219.887 226.575 219.853 226.287 219.853C225.711 219.853 225.242 219.64 224.671 219.64C223.725 219.64 222.778 219.64 221.832 219.64" stroke="black" stroke-width="3" stroke-linecap="round"/>
<path d="M221.336 209.777C219.965 209.777 218.595 209.777 217.224 209.777C216.303 209.777 215.496 210.096 214.772 210.66C213.986 211.271 214.476 212.246 214.224 213.096C214.004 213.839 214.169 214.815 214.169 215.595C214.169 215.949 214.169 216.302 214.169 216.656C214.169 217.01 214.382 217.341 214.382 217.689C214.382 218.248 215.417 219.018 215.872 219.246C216.211 219.415 216.704 219.427 217.078 219.427C217.848 219.427 218.682 219.507 219.443 219.372C220.08 219.259 220.766 219.143 221.407 219.143" stroke="black" stroke-width="3" stroke-linecap="round"/>
<path d="M223.606 219.498C224.656 218.678 225.515 217.664 226.516 216.805C226.672 216.671 226.9 216.507 227.083 216.415C227.27 216.322 227.387 216.149 227.58 216.053C227.786 215.95 227.875 215.77 228.045 215.631C228.233 215.477 228.481 215.397 228.66 215.225C229.308 214.602 229.889 213.914 230.596 213.364C231.33 212.793 232.321 212.828 233.225 212.828C233.662 212.828 234.098 212.828 234.534 212.828C234.905 212.828 235.208 213.041 235.563 213.041C235.767 213.041 236.357 213.483 236.482 213.644C236.771 214.016 236.968 214.468 237.231 214.87C238.11 216.215 238.508 217.956 238.508 219.569" stroke="black" stroke-width="3" stroke-linecap="round"/>
<path d="M262.35 219.995C263.084 219.995 263.838 220.066 264.554 220.066C264.978 220.066 265.389 220.137 265.827 220.137C267.081 220.137 268.334 220.137 269.588 220.137C273.614 220.137 277.641 220.137 281.667 220.137C282.966 220.137 284.264 220.021 285.57 220.066C286.811 220.108 288.066 220.137 289.319 220.137C290.639 220.137 291.924 219.94 293.221 219.778C293.731 219.714 294.184 219.64 294.708 219.64C294.916 219.64 295.617 219.543 295.701 219.711" stroke="black" stroke-width="3" stroke-linecap="round"/>
<path d="M295.701 219.782C296.422 219.782 297.057 220.029 297.759 220.066C298.319 220.095 298.851 220.208 299.427 220.208C299.653 220.208 299.813 220.269 299.904 220.066C299.993 219.863 299.947 219.646 299.959 219.427C299.993 218.771 300.03 218.112 300.03 217.444C300.03 214.652 300.03 211.859 300.03 209.067" stroke="black" stroke-width="3" stroke-linecap="round"/>
<path d="M300.03 209.067C300.03 204.61 299.888 200.186 299.888 195.727" stroke="black" stroke-width="3" stroke-linecap="round"/>
<path d="M299.888 178.838V195.656" stroke="black" stroke-width="3" stroke-linecap="round"/>
<path d="M299.888 178.767C299.888 177.616 299.575 176.523 299.178 175.448C299.017 175.011 298.872 174.574 298.752 174.123C298.692 173.898 298.552 173.675 298.539 173.445C298.498 172.695 297.88 172.146 297.546 171.561C297.498 171.476 297.215 171.285 297.12 171.23C296.956 171.133 296.821 171.016 296.659 170.926C296.415 170.79 295.802 170.82 295.524 170.82C294.61 170.82 293.704 170.323 292.792 170.323" stroke="black" stroke-width="3" stroke-linecap="round"/>
<path d="M292.792 170.323C291.195 170.323 289.681 169.988 288.105 169.83C286.985 169.718 285.88 169.493 284.758 169.385C283.681 169.28 282.643 169.258 281.557 169.258C280.047 169.258 278.554 169.188 277.043 169.188C275.943 169.188 274.867 169.471 273.759 169.471C272.429 169.471 271.081 169.542 269.762 169.542C269.315 169.542 268.896 169.613 268.453 169.613C267.989 169.613 267.591 169.864 267.16 170.023C266.81 170.153 266.396 170.18 266.076 170.358C265.881 170.466 265.649 170.44 265.473 170.607C265.35 170.723 265.165 170.893 265.011 170.961C264.432 171.219 264.105 171.965 263.557 172.239" stroke="black" stroke-width="3" stroke-linecap="round"/>
<path d="M263.556 172.239C263.147 172.802 263.016 173.347 262.776 173.997C262.629 174.395 262.421 174.866 262.421 175.29C262.421 175.628 262.433 175.947 262.334 176.268C262.231 176.605 262.315 177.067 262.173 177.38C261.82 178.155 261.995 179.287 261.995 180.116C261.995 181.355 261.995 182.594 261.995 183.833C261.995 184.536 261.995 185.239 261.995 185.942C261.995 186.33 261.995 186.717 261.995 187.105C261.995 187.284 262.089 187.839 261.979 187.976C261.86 188.126 261.853 188.565 261.853 188.773C261.853 189.239 261.782 189.702 261.782 190.156C261.782 190.786 261.772 191.277 261.499 191.824" stroke="black" stroke-width="3" stroke-linecap="round"/>
<path d="M222.826 188.276C222.809 187.43 222.471 186.604 222.471 185.761C222.471 184.47 222.471 183.18 222.471 181.889C222.471 180.85 222.471 179.81 222.471 178.771C222.471 177.817 222.613 176.872 222.613 175.925C222.613 174.888 222.826 173.904 222.826 172.877" stroke="black" stroke-width="3" stroke-linecap="round"/>
<path d="M222.826 172.878C222.826 172.294 222.875 171.717 222.897 171.143C222.924 170.443 223.181 169.735 223.181 169.042C223.181 167.471 223.567 165.933 223.733 164.378C223.876 163.031 224.249 161.686 224.454 160.353C224.538 159.809 224.671 159.307 224.671 158.757" stroke="black" stroke-width="3" stroke-linecap="round"/>
<path d="M224.671 158.757C225.109 158.038 225.642 157.828 226.413 157.688C227.108 157.562 227.865 157.408 228.577 157.408C229.64 157.408 230.704 157.408 231.767 157.408C233.498 157.408 235.209 157.266 236.939 157.266C241.435 157.266 245.932 157.266 250.429 157.266" stroke="black" stroke-width="3" stroke-linecap="round"/>
<path d="M250.358 157.337C250.86 157.337 251.362 157.337 251.864 157.337C252.305 157.337 252.678 157.48 253.086 157.554C253.518 157.633 254.061 157.849 254.49 157.992C254.957 158.148 255.482 158.234 255.968 158.331C256.983 158.534 258.063 158.845 259.086 158.899C259.888 158.941 260.521 159.261 261.215 159.608" stroke="black" stroke-width="3" stroke-linecap="round"/>
<path d="M261.286 159.608C261.56 160.4 261.87 161.135 262.051 161.95C262.135 162.331 262.066 162.803 262.066 163.192C262.066 163.68 262.189 164.213 262.275 164.686C262.45 165.644 262.249 166.721 262.346 167.694C262.423 168.461 262.563 169.278 262.563 170.039" stroke="black" stroke-width="3" stroke-linecap="round"/>
<path d="M262.563 169.968V173.09" stroke="black" stroke-width="3" stroke-linecap="round"/>
<path d="M234.747 157.196C234.747 156.112 234.941 155.117 235.027 154.042C235.077 153.412 235.214 152.769 235.244 152.142C235.255 151.897 235.338 151.656 235.382 151.416C235.419 151.214 235.365 151.012 235.421 150.809C235.559 150.312 235.457 149.658 235.457 149.146C235.457 148.515 235.636 147.915 235.67 147.293C235.733 146.117 235.882 144.964 235.882 143.784" stroke="black" stroke-width="3" stroke-linecap="round"/>
<path d="M235.882 143.784C235.882 141.26 236.166 138.784 236.166 136.266C236.166 135.857 236.308 135.464 236.308 135.056C236.308 134.62 236.564 134.643 236.75 134.347C236.971 133.992 237.514 133.634 237.865 133.393C238.07 133.252 238.219 133.081 238.441 132.959C238.844 132.737 239.232 132.713 239.675 132.608C240.603 132.387 241.561 132.431 242.517 132.431C243.602 132.431 244.651 132.289 245.73 132.289C247.741 132.289 249.758 132.218 251.777 132.218" stroke="black" stroke-width="3" stroke-linecap="round"/>
<path d="M251.777 132.218C252.576 132.218 253.375 132.218 254.174 132.218C254.599 132.218 255.136 132.126 255.542 132.253C256.53 132.562 257.785 132.724 258.479 133.582C259.348 134.655 260.31 135.959 260.576 137.358C260.68 137.903 260.921 138.417 260.998 138.959C261.044 139.278 261.078 139.749 261.215 140.023" stroke="black" stroke-width="3" stroke-linecap="round"/>
<path d="M261.215 140.023C261.215 141.424 261.215 142.825 261.215 144.226C261.215 144.705 261.215 145.185 261.215 145.665C261.215 146.165 261.389 147.114 261.179 147.577C260.972 148.032 261.144 148.919 261.144 149.422C261.144 150.154 261.144 150.885 261.144 151.617C261.144 152.081 261.144 152.545 261.144 153.009C261.144 153.166 261.135 153.914 261.073 153.79" stroke="black" stroke-width="3" stroke-linecap="round"/>
<path d="M261.073 153.79C261.073 155.47 260.789 157.086 260.789 158.757" stroke="black" stroke-width="3" stroke-linecap="round"/>
<path d="M260.789 147.687C262.088 147.687 263.337 147.446 264.585 147.084C265.307 146.874 265.966 146.532 266.71 146.394C267.358 146.274 268.026 146.156 268.666 146.016C269.263 145.885 269.871 145.927 270.471 145.807C272.669 145.367 274.943 145.453 277.141 145.046C278.289 144.833 279.413 144.64 280.579 144.549C282.653 144.388 284.723 144.423 286.808 144.423C288.516 144.423 290.194 144.707 291.901 144.707C292.456 144.707 293.012 144.778 293.572 144.778C293.87 144.778 294.141 144.707 294.424 144.707" stroke="black" stroke-width="3" stroke-linecap="round"/>
<path d="M294.424 144.707C295.383 144.707 296.342 144.707 297.302 144.707C298.014 144.707 298.531 145.042 298.981 145.542C299.232 145.821 299.296 146.386 299.391 146.741C299.548 147.329 299.675 147.836 299.675 148.436C299.675 149.034 299.601 149.682 299.691 150.273C299.795 150.966 300.03 151.747 300.03 152.441" stroke="black" stroke-width="3" stroke-linecap="round"/>
<path d="M300.03 152.441C300.03 154.853 300.101 157.274 300.101 159.695C300.101 161.863 300.456 164.058 300.456 166.208" stroke="black" stroke-width="3" stroke-linecap="round"/>
<path d="M300.243 165.711C300.407 166.553 300.314 167.478 300.314 168.332C300.314 169.66 300.312 170.996 300.243 172.31C300.152 174.034 300.172 179.217 300.172 177.49" stroke="black" stroke-width="3" stroke-linecap="round"/>
<path d="M259.015 134.276C259.015 131.618 258.96 128.966 259.224 126.332C259.295 125.617 259.466 124.869 259.669 124.184C259.795 123.76 259.944 123.015 260.434 122.851" stroke="black" stroke-width="3" stroke-linecap="round"/>
<path d="M260.435 122.851C261.47 122.851 262.423 122.435 263.289 121.858C264.069 121.337 264.986 121.052 265.82 120.636C266.482 120.304 267.185 120.118 267.889 119.906C268.188 119.817 268.492 119.743 268.792 119.658C269.104 119.57 269.402 119.626 269.714 119.571C270.438 119.445 271.128 119.374 271.863 119.374C272.801 119.374 273.72 119.232 274.658 119.232C275.353 119.232 276.015 119.113 276.7 119.09C277.017 119.08 277.329 118.995 277.642 118.948C277.93 118.906 278.288 118.933 278.561 118.842C279.111 118.659 279.801 118.876 280.374 118.791C281.095 118.684 281.842 118.736 282.57 118.736C283.286 118.736 284.002 118.736 284.718 118.736C285.318 118.736 285.992 118.654 286.579 118.771C287.475 118.95 288.401 119.019 289.315 119.019" stroke="black" stroke-width="3" stroke-linecap="round"/>
<path d="M289.315 119.019C290.58 119.019 291.846 119.019 293.111 119.019C293.927 119.019 294.85 119.139 295.346 119.855C295.888 120.638 296.411 121.554 296.411 122.536C296.411 124.201 296.765 125.894 296.765 127.534" stroke="black" stroke-width="3" stroke-linecap="round"/>
<path d="M296.766 127.534C296.766 128.112 296.81 128.673 296.837 129.237C296.868 129.891 296.742 130.676 296.923 131.311C297.058 131.784 297.164 132.437 297.191 132.927C297.213 133.315 297.386 133.674 297.404 134.063C297.466 135.36 297.951 136.64 297.972 137.95C297.984 138.677 298.123 139.438 298.272 140.149C298.339 140.474 298.469 140.832 298.469 141.159" stroke="black" stroke-width="3" stroke-linecap="round"/>
<path d="M298.469 141.088V143.997" stroke="black" stroke-width="3" stroke-linecap="round"/>
<path d="M316.989 99.9312C319.045 101.185 320.991 102.514 322.697 104.22C323.957 105.48 325.074 106.849 326.151 108.233C326.725 108.972 327.487 109.506 328.059 110.22C328.573 110.864 329.015 111.442 329.478 112.136" stroke="black" stroke-width="3" stroke-linecap="round"/>
<path d="M398.451 14.4961C395.186 15.3476 393.273 16.4352 390.653 17.8391C389.344 18.5402 388.059 19.7517 386.963 20.7326C385.588 21.9626 384.265 23.2044 382.926 24.4777C378.272 28.9045 373.49 33.3565 369.247 38.1966C363.579 44.6609 362.827 50.7378 359.139 58.491C358.164 60.5408 356.788 63.1188 356.159 65.3031C355.647 67.0802 355.345 69.0945 354.74 70.8379C354.327 72.0267 354.211 74.2717 354.03 75.5212C353.702 77.7857 353.746 79.2111 353.746 81.7657" stroke="black" stroke-width="3" stroke-linecap="round"/>
<path d="M353.746 81.7656C353.746 84.2775 353.027 86.5066 352.5 88.9404C351.984 91.3265 352.429 93.7667 352.043 96.1783C351.556 99.2194 351.759 102.466 351.759 105.545C351.759 107.495 351.759 109.445 351.759 111.395C351.759 113.326 352.043 115.245 352.043 117.174C352.043 120.347 352.554 123.696 353.32 126.762C353.683 128.215 354.284 129.572 354.771 130.98C355.511 133.117 356.199 135.227 356.584 137.54" stroke="black" stroke-width="3" stroke-linecap="round"/>
<path d="M355.449 134.985C355.719 136.368 356.444 137.683 357.184 138.88C358.039 140.266 358.585 141.937 359.58 143.217C360.73 144.694 361.748 146.251 363.081 147.585C364.625 149.128 366.128 150.561 367.946 151.811C369.462 152.853 370.972 154.083 372.621 154.933C373.245 155.254 373.712 155.777 374.324 156.1C375.006 156.459 375.77 156.844 376.374 157.338C377.274 158.073 378.514 158.373 379.504 158.907C380.825 159.618 382.241 160.201 383.659 160.704C385.843 161.479 387.857 162.486 390.124 163.077C392.425 163.678 394.627 164.744 396.889 165.498" stroke="black" stroke-width="3" stroke-linecap="round"/>
<path d="M396.038 165.356C397.766 165.735 399.365 166.84 400.989 167.532C401.832 167.891 402.734 168.146 403.623 168.368C404.399 168.562 405.178 168.788 405.941 169.014C406.529 169.189 407.135 169.122 407.707 169.298C408.438 169.523 409.386 169.527 410.151 169.645C411.231 169.811 412.305 169.82 413.383 170.008C414.703 170.237 416.269 170.323 417.61 170.323C419.071 170.323 420.513 170.641 421.962 170.741C424.35 170.906 426.637 171.483 428.971 171.963C430.465 172.271 432.041 172.757 433.56 172.87C435.872 173.041 438.145 173.587 440.474 173.587C442.68 173.587 445.105 173.84 447.271 173.366C448.535 173.09 449.959 172.736 451.244 172.736" stroke="black" stroke-width="3" stroke-linecap="round"/>
<path d="M450.109 172.452C452.17 172.452 454.184 171.188 455.865 170.118C456.925 169.443 458.157 169.022 459.223 168.336C460.088 167.78 461.025 167.696 461.888 167.264C462.798 166.809 463.813 166.779 464.727 166.349C465.492 165.989 466.366 165.749 467.155 165.427C468.06 165.056 468.903 164.629 469.788 164.22C474.026 162.265 477.985 159.592 481.891 157.054C483.152 156.234 484.324 155.276 485.455 154.286C486.055 153.761 486.728 153.289 487.292 152.725C487.52 152.496 487.965 151.93 488.285 151.874C488.527 151.831 489.288 151.012 489.492 150.809C489.958 150.343 490.57 150.156 491.045 149.682C491.984 148.742 493.252 148.084 494.246 147.19C495.414 146.139 496.786 145.097 498.03 144.115C500.041 142.528 504.698 137.697 506.593 135.979" stroke="black" stroke-width="3" stroke-linecap="round"/>
<path d="M506.451 136.263C507.937 133.349 509.556 130.683 511.024 127.748C511.794 126.206 512.704 124.691 513.547 123.175C514.472 121.509 515.202 119.721 516.07 118.018C517.34 115.525 518.808 112.935 519.334 110.15C519.47 109.425 519.741 108.743 519.901 108.021C520.004 107.558 519.91 107.1 520.043 106.633C520.292 105.764 520.501 104.816 520.501 103.905C520.501 102.495 520.784 101.101 520.784 99.6791C520.784 98.986 520.893 98.3291 520.926 97.6607C520.967 96.8506 520.926 96.0278 520.926 95.2166C520.926 94.2802 521.21 93.3277 521.21 92.4413C521.21 90.8024 521.636 89.2287 521.636 87.5845" stroke="black" stroke-width="3" stroke-linecap="round"/>
<path d="M521.494 88.4359C521.494 84.3297 520.534 80.5119 519.933 76.4516C518.999 70.1471 517.582 63.9201 516.598 57.6237C516.409 56.4152 516.162 55.1728 516.101 53.9496C516.038 52.6953 515.491 51.5475 515.384 50.3149C515.231 48.5533 514.398 46.8226 514.398 45.0403C514.398 42.5023 513.202 40.2045 512.127 38.0547" stroke="black" stroke-width="3" stroke-linecap="round"/>
<path d="M369.925 29.5393C370.225 28.1738 371.683 27.1886 372.55 26.1333C373.849 24.5528 375.472 23.0076 377.1 21.7653C379.743 19.7481 382.327 17.6308 385.071 15.7496C388.059 13.7003 391.477 12.2134 394.753 10.672C395.553 10.2953 396.425 10.0834 397.244 9.74955C398.035 9.42753 398.81 8.92884 399.617 8.67727C401.327 8.14479 402.883 7.2976 404.553 6.6904C407.521 5.61115 410.413 4.43956 413.462 3.56819C415.048 3.11526 416.643 2.71667 418.303 2.71667C420.357 2.71667 422.415 2.00708 424.485 2.00708C433.972 2.00708 443.46 2.00708 452.947 2.00708" stroke="black" stroke-width="3" stroke-linecap="round"/>
<path d="M453.089 2.00717C455.604 2.00717 458.17 1.88538 460.603 2.6458C462.347 3.19089 464.263 3.43078 466.067 3.74173C467.103 3.9204 468.125 3.96443 469.158 4.10441C470.146 4.23845 471.068 4.53531 472.035 4.70363C473.918 5.03105 475.807 5.76078 477.586 6.4855C479.741 7.36353 481.433 8.93358 483.318 10.2385C485.46 11.7213 487.451 13.3213 489.436 15.0085C490.928 16.2762 492.474 17.3631 494.072 18.4698C494.809 18.98 495.601 19.8634 496.091 20.5985" stroke="black" stroke-width="3" stroke-linecap="round"/>
<path d="M495.239 19.7471C496.805 21.8763 498.945 23.4274 500.553 25.4948C502.046 27.4137 504.221 28.8703 505.954 30.6039C506.764 31.4133 507.424 32.3573 508.225 33.1584C508.531 33.4642 508.759 33.9642 509.005 34.3332C509.278 34.7419 509.736 35.0831 509.967 35.5001C510.656 36.7406 512.22 37.53 512.837 38.7642" stroke="black" stroke-width="3" stroke-linecap="round"/>
</svg>
