<svg width="55" height="52" viewBox="0 0 55 52" fill="none" xmlns="http://www.w3.org/2000/svg">
<path d="M19.8833 3.5665C18.7044 3.82424 17.609 4.70247 16.6412 5.37302C15.4985 6.16473 14.3298 7.05463 13.2917 7.98522C11.4666 9.62118 9.68685 11.3729 8.05883 13.197C6.68063 14.7413 5.69723 16.5813 4.75354 18.4089C4.39257 19.1079 3.75885 20.1145 3.72973 20.9267C3.71025 21.4697 3.49535 21.9835 3.41373 22.5255C3.32208 23.134 3.34422 23.7489 3.24942 24.3508C2.854 26.8615 3.04718 29.4888 3.04718 32.0301C3.04718 34.3231 3.88048 36.7027 4.62715 38.8407C5.0797 40.1366 5.67266 41.3262 6.28295 42.5419C7.08164 44.1328 9.17086 45.0249 10.6689 45.7709C12.8092 46.8368 14.97 47.6275 17.2795 48.1502C20.2681 48.8267 23.4509 49 26.5065 49C28.5736 49 30.4818 48.9991 32.5104 48.572C34.5158 48.1498 36.8284 47.5574 38.6406 46.5577C39.8674 45.881 40.9828 44.9411 42.1166 44.1281C43.5007 43.1355 44.7658 41.7423 45.7694 40.3829C47.9165 37.4746 49.5421 34.1545 50.1996 30.5887C50.4654 29.1474 50.8208 27.7264 51.0971 26.2895C51.352 24.9638 51.4496 23.6101 51.6722 22.28C52.2884 18.5975 52.1123 14.5812 50.484 11.1576C49.1667 8.38767 47.2275 6.47431 44.3791 5.24083C41.659 4.06293 39.0479 3.28167 36.0621 3.2266C34.8815 3.20483 33.7195 3 32.5356 3C31.7141 3 30.8925 3 30.0709 3C28.6468 3 27.2227 3 25.7987 3C23.4856 3 21.1725 3 18.8595 3" stroke="black" stroke-width="4.38779" stroke-linecap="round"/>
<path d="M35.9838 13.2537C33.4726 14.7484 31.4424 17.0966 29.309 19.0616C28.0349 20.2352 26.792 21.6379 25.7039 22.9829C24.4725 24.505 23.215 26.0163 22.0325 27.5721C21.0011 28.9292 19.9983 30.306 18.9577 31.6565C18.225 32.6076 17.3448 33.5959 16.7549 34.6447C16.5395 35.0276 16.3402 35.4856 16.0461 35.8124C15.9067 35.9672 15.8782 36.294 15.6993 36.3835" stroke="#E03131" stroke-width="5.85038" stroke-linecap="round"/>
<path d="M17.9023 16.2825C19.2843 17.6645 20.6428 19.0819 22.0072 20.4842C23.3773 21.8923 24.6127 23.4582 26.0253 24.8185C28.0129 26.7324 29.727 28.9545 31.8537 30.7131C33.0571 31.7082 34.1148 33.0117 35.4333 33.8593C35.8061 34.099 36.2272 34.324 36.5551 34.6191C36.6914 34.7417 37.126 35.109 37.1772 35.0066" stroke="#E03131" stroke-width="5.85038" stroke-linecap="round"/>
</svg>
