<svg width="16" height="63" viewBox="0 0 16 63" fill="none" xmlns="http://www.w3.org/2000/svg">
<path d="M2.88211 0.792805C2.23851 0.169705 1.21781 0.177902 0.582384 0.813302C-0.048912 1.4446 -0.0571091 2.46532 0.565986 3.10893C8.30963 10.5124 12.688 20.7562 12.688 31.4677C12.688 42.175 8.30984 52.4238 0.565986 59.8233C0.246235 60.1267 0.0658709 60.5489 0.0617676 60.9876C0.0617676 61.4262 0.233935 61.8484 0.54549 62.16C0.857045 62.4716 1.27928 62.6437 1.71792 62.6437C2.15655 62.6396 2.57877 62.4593 2.88215 62.1395C11.2612 54.1376 16 43.0524 16 31.4678C16 19.8789 11.2612 8.79482 2.88215 0.792911L2.88211 0.792805Z" fill="black"/>
</svg>
