<svg width="230" height="218" viewBox="0 0 230 218" fill="none" xmlns="http://www.w3.org/2000/svg">
<mask id="mask0_78_79" style="mask-type:alpha" maskUnits="userSpaceOnUse" x="0" y="30" width="70" height="66">
<path d="M68.0627 63.3172C68.0627 80.4839 53.1764 94.5324 34.6447 94.5324C16.113 94.5324 1.22665 80.4839 1.22665 63.3172C1.22665 46.1505 16.113 32.102 34.6447 32.102C53.1764 32.102 68.0627 46.1505 68.0627 63.3172Z" fill="white" stroke="white" stroke-width="2.39641"/>
</mask>
<g mask="url(#mask0_78_79)">
<ellipse cx="55.7679" cy="77.9587" rx="33.225" ry="32.2477" fill="#5C7CFA"/>
<ellipse cx="42.0869" cy="31.0529" rx="33.225" ry="32.2477" fill="#12B886"/>
<ellipse cx="4.30173" cy="72.0954" rx="33.225" ry="32.2477" fill="#FA5252"/>
<path d="M68.0627 63.3172C68.0627 80.4839 53.1764 94.5324 34.6447 94.5324C16.113 94.5324 1.22665 80.4839 1.22665 63.3172C1.22665 46.1505 16.113 32.102 34.6447 32.102C53.1764 32.102 68.0627 46.1505 68.0627 63.3172Z" stroke="white" stroke-width="2.39641"/>
</g>
<path d="M19.9886 124.539C19.5649 124.031 18.8094 123.962 18.301 124.386L10.0167 131.289C9.50829 131.713 9.4396 132.468 9.86325 132.977C10.2869 133.485 11.0424 133.554 11.5508 133.13L18.9147 126.994L25.0513 134.358C25.4749 134.866 26.2304 134.935 26.7388 134.511C27.2472 134.087 27.3159 133.332 26.8922 132.823L19.9886 124.539ZM43.5525 168.8C34.8865 164.622 18.021 150.059 20.2614 125.415L17.8748 125.198C15.5141 151.165 33.2846 166.51 42.5118 170.959L43.5525 168.8Z" fill="white"/>
<path d="M59.273 163.313C59.8977 163.095 60.2272 162.412 60.0089 161.787L56.4519 151.607C56.2336 150.982 55.5503 150.652 54.9255 150.871C54.3008 151.089 53.9713 151.772 54.1896 152.397L57.3514 161.446L48.3022 164.608C47.6775 164.826 47.348 165.51 47.5663 166.134C47.7846 166.759 48.4679 167.088 49.0926 166.87L59.273 163.313ZM59.3981 161.103C50.7321 156.924 33.8666 142.362 36.107 117.717L33.7204 117.5C31.3597 143.468 49.1302 158.813 58.3574 163.261L59.3981 161.103Z" fill="white"/>
<path d="M214.292 131.65C214.806 131.233 215.56 131.312 215.977 131.826L222.77 140.201C223.187 140.715 223.108 141.469 222.594 141.886C222.08 142.303 221.326 142.224 220.909 141.71L214.871 134.266L207.426 140.304C206.912 140.721 206.157 140.642 205.741 140.128C205.324 139.614 205.402 138.86 205.916 138.443L214.292 131.65ZM182.614 170.518C191.924 168.095 211.287 157.068 213.855 132.456L216.238 132.705C213.533 158.639 193.131 170.257 183.217 172.838L182.614 170.518Z" fill="white"/>
<path d="M169.851 160.486C169.28 160.151 169.089 159.417 169.424 158.846L174.883 149.546C175.218 148.975 175.952 148.784 176.522 149.119C177.093 149.454 177.284 150.188 176.949 150.759L172.097 159.026L180.364 163.878C180.935 164.213 181.126 164.947 180.791 165.517C180.456 166.088 179.722 166.279 179.151 165.944L169.851 160.486ZM170.156 158.293C179.466 155.869 198.829 144.843 201.397 120.23L203.78 120.479C201.075 146.413 180.673 158.031 170.759 160.612L170.156 158.293Z" fill="white"/>
<path d="M143.898 27.3677C144.557 27.3076 145.043 26.7247 144.983 26.0657L144.004 15.3264C143.944 14.6673 143.361 14.1818 142.702 14.2419C142.043 14.3019 141.557 14.8848 141.617 15.5438L142.487 25.0899L132.941 25.9598C132.282 26.0199 131.797 26.6028 131.857 27.2618C131.917 27.9209 132.5 28.4064 133.159 28.3464L143.898 27.3677ZM94.0846 21.6319C102.445 16.871 124.009 11.2573 143.023 27.0951L144.556 25.2538C124.521 8.56545 101.8 14.4803 92.8987 19.5495L94.0846 21.6319Z" fill="white"/>
<path d="M91.9438 37.724C91.7687 38.3621 92.1442 39.0214 92.7823 39.1964L103.182 42.0492C103.82 42.2242 104.479 41.8488 104.654 41.2106C104.83 40.5724 104.454 39.9132 103.816 39.7381L94.5718 37.2024L97.1075 27.9582C97.2826 27.3201 96.9071 26.6608 96.269 26.4857C95.6308 26.3107 94.9715 26.6861 94.7965 27.3243L91.9438 37.724ZM93.6922 39.0821C102.052 34.3212 123.616 28.7075 142.63 44.5453L144.164 42.704C124.129 26.0156 101.408 31.9305 92.5064 36.9997L93.6922 39.0821Z" fill="white"/>
<mask id="mask1_78_79" style="mask-type:alpha" maskUnits="userSpaceOnUse" x="159" y="35" width="71" height="66">
<path d="M227.927 68.3523C227.927 85.519 213.04 99.5675 194.509 99.5675C175.977 99.5675 161.091 85.519 161.091 68.3523C161.091 51.1857 175.977 37.1372 194.509 37.1372C213.04 37.1372 227.927 51.1857 227.927 68.3523Z" fill="white" stroke="white" stroke-width="2.39641"/>
</mask>
<g mask="url(#mask1_78_79)">
<rect x="153.599" y="24.6099" width="87.4846" height="83.0789" fill="#F06595"/>
<rect x="144.787" y="58.5967" width="60.4211" height="53.4978" fill="#FFD43B"/>
<path d="M185.697 53.2471C168.075 37.1349 174.159 22.617 179.403 17.3721C290.49 -59.0983 247.377 81.2547 223.146 96.6747C228.81 69.2965 207.726 73.3875 185.697 53.2471Z" fill="#228BE6"/>
<path d="M227.927 68.3523C227.927 85.519 213.04 99.5675 194.509 99.5675C175.977 99.5675 161.091 85.519 161.091 68.3523C161.091 51.1857 175.977 37.1372 194.509 37.1372C213.04 37.1372 227.927 51.1857 227.927 68.3523Z" stroke="white" stroke-width="2.39641"/>
</g>
<mask id="mask2_78_79" style="mask-type:alpha" maskUnits="userSpaceOnUse" x="79" y="152" width="70" height="66">
<path d="M147.365 184.788C147.365 201.955 132.479 216.004 113.947 216.004C95.4157 216.004 80.5294 201.955 80.5294 184.788C80.5294 167.622 95.4157 153.573 113.947 153.573C132.479 153.573 147.365 167.622 147.365 184.788Z" fill="white" stroke="white" stroke-width="2.39641"/>
</mask>
<g mask="url(#mask2_78_79)">
<rect x="71.1492" y="152.375" width="101.331" height="76.1557" fill="#FF922B"/>
<path d="M98.8421 200.208L87.1985 152.69L128.109 139.158L164.928 172.515L146.675 219.404L130.626 167.165L121.185 200.208L108.912 167.165L98.8421 200.208Z" fill="#40C057"/>
<path d="M61.5086 189.998C106.573 176.907 131.475 209.719 138.294 227.761L137.979 229.335C93.7122 221.677 16.4446 203.089 61.5086 189.998Z" fill="#BE4BDB"/>
<path d="M147.365 184.788C147.365 201.955 132.479 216.004 113.947 216.004C95.4157 216.004 80.5294 201.955 80.5294 184.788C80.5294 167.622 95.4157 153.573 113.947 153.573C132.479 153.573 147.365 167.622 147.365 184.788Z" stroke="white" stroke-width="2.39641"/>
</g>
</svg>
