<svg width="23" height="23" viewBox="0 0 23 23" fill="none" xmlns="http://www.w3.org/2000/svg">
<path d="M10.4479 21.4935C9.88773 18.9382 9.47393 16.3176 9.283 13.6821C6.58402 13.3858 4.88721 13.0034 2.1841 12.6251C-0.304773 12.2763 0.758242 8.54618 3.2217 8.8908C5.55148 9.21653 6.8706 9.53804 9.19403 9.79654C9.2598 6.98056 9.62688 4.18329 10.448 1.47028C11.2289 -1.11034 15.3133 -0.0112548 14.5262 2.58405C13.7772 5.05541 13.4546 7.60654 13.408 10.1744C15.5531 10.3131 18.7068 10.3656 20.8773 10.2689C23.4001 10.1575 23.3874 14.0306 20.8773 14.1398C18.7512 14.2344 15.6421 14.1819 13.5394 14.0516C13.7261 16.1845 14.072 18.3049 14.5239 20.3771C15.1032 23.0144 11.025 24.133 10.4479 21.4935Z" fill="black"/>
</svg>
